<svg width="759" height="737" viewBox="0 0 759 737" fill="none" xmlns="http://www.w3.org/2000/svg">
<path fill-rule="evenodd" clip-rule="evenodd" d="M236.871 334.767C239.63 369.977 242.389 405.188 245.148 440.398C260.169 429.565 275.19 418.73 290.211 407.896V488.111V509.195C290.211 511.061 289.335 517.469 290.211 519.085C290.954 520.455 296.459 520.494 297.76 520.725C306.253 522.229 314.766 523.566 323.291 524.756C345.761 527.892 369.81 532.385 392.364 528.781C411.97 525.648 430.977 516.834 448.89 506.578C455.179 502.977 461.38 499.123 467.465 495.005C468.756 494.132 473.439 492.07 474.141 490.293C474.714 488.841 473.37 483.739 473.19 482.213C472.433 475.78 471.676 469.346 470.92 462.913L460.348 373.073L480.319 398.279C481.883 400.254 484.853 405.86 487.018 406.736C488.606 407.377 492.536 405.391 494.105 405.009C505.412 402.255 516.72 399.5 528.029 396.747C530.662 396.105 536.6 396.129 538.821 394.118C540.016 393.034 540.072 390.829 540.495 388.74C543.253 375.082 546.011 361.426 548.769 347.769C549.265 345.309 552.037 337.553 551.333 335.076C551.08 334.188 549.857 333.581 549.108 333.002C532.042 319.827 514.974 306.651 497.908 293.475C488.559 286.257 479.209 279.039 469.86 271.822C465.944 268.798 461.133 263.35 456.696 261.659C453.942 260.608 449.934 261.395 447.083 261.292C441.29 261.083 435.498 260.874 429.705 260.665C428.798 260.633 425.622 259.816 424.858 260.491C424.223 261.053 424.486 261.836 424.278 263.176C423.769 266.447 423.765 269.975 423.514 273.296C423.313 275.961 423.713 280.848 422.763 283.26C422.156 284.801 422.925 284.187 422.104 284.933C421.127 285.819 418.005 285.534 416.842 285.704C411.166 286.538 405.489 287.371 399.813 288.205C393.064 289.195 386.24 291.054 379.46 290.198C369.181 288.901 358.098 288.965 348.004 286.228C345.382 285.516 344.436 283.649 342.413 281.095C338.464 276.111 334.554 271.068 330.562 266.136C328.605 263.719 329.443 264.129 327.426 265.046C324.898 266.194 322.334 268.966 320.046 270.728C311.279 277.478 302.512 284.228 293.745 290.978L240.22 332.188C239.104 333.048 237.988 333.907 236.871 334.767Z" fill="#FF7913"/>
<path fill-rule="evenodd" clip-rule="evenodd" d="M748.817 339.144C737.783 392.09 715.592 449.822 670.885 466.698C660.016 470.801 649.442 473.898 638.153 472.336C637.078 472.187 636.179 472.378 635.157 472.403C633.326 472.447 634.908 473.278 632.854 472.477C631.252 471.852 629.754 470.289 628.086 469.598C623.649 467.764 618.92 467.409 614.411 465.927C603.333 462.284 591.916 457.787 581.182 452.763C576.128 450.398 571.482 447.104 566.728 443.935C561.895 440.715 556.773 438.716 551.886 435.762C548.024 433.428 541.407 430.385 538.691 426.006C535.796 421.336 539.802 411.394 540.947 406.429C544.841 389.536 549.478 372.89 552.405 355.66C562.51 370.464 576.536 379.631 591.055 385.544C598.933 388.752 607.038 391.071 615.232 392.523C622.672 393.84 630.698 395.435 638.155 393.564C643.785 392.152 650.852 388.881 654.872 383.45C656.307 381.511 658.029 377.956 657.225 375.14C656.204 371.564 653.231 373.247 651.621 370.579C650.22 368.255 650.439 362.819 649.993 359.989C649.202 354.98 648.116 350.108 646.791 345.287C644.219 335.925 641.014 326.543 640.246 316.581C639.578 307.938 641.135 299.765 644.546 292.266C646.158 288.721 650.206 279.076 654.156 279.476C658.495 279.916 652.644 303.027 652.453 307.742C651.695 326.43 653.678 346.343 661.265 362.724C664.17 368.996 668.371 376.298 674.573 377.075C681.143 377.898 686.442 371.364 689.57 364.753C697.2 348.625 693.353 326.495 689.489 309.591C684.748 288.852 672.376 274.557 664.553 255.932C676.233 257.416 682.487 266.794 688.481 278.692C695.081 291.791 700.218 307.519 702.751 322.761C704.031 330.462 703.148 338.195 703.156 345.971C703.159 348.554 703.158 358.086 706.491 357.71C710.051 357.309 711.273 346.559 711.797 343.28C712.997 335.759 714.296 328.236 715.339 320.678C717.184 307.304 718.004 293.607 720.214 280.327C720.587 278.082 721.331 271.853 723.99 273.535C726.04 274.829 725.711 284.463 725.786 286.702C725.97 292.221 726.229 297.738 726.264 303.262C726.316 311.449 725.025 319.923 725.658 328.06C726.072 333.377 728.329 339.251 731.128 332.081C733.903 324.97 734.469 316.102 736.016 308.455C737.642 300.426 739.321 292.279 742.771 285.148C743.727 283.17 744.756 280.029 746.883 280.96C748.428 281.637 749.569 286.266 750.047 287.9C752.202 295.285 751.836 303.495 751.7 311.225C751.534 320.698 750.73 329.96 748.817 339.144ZM533.666 352.884C533.077 352.643 530.572 352.343 529.951 352.274C529.223 352.194 530.049 350.498 528.287 350.981C528.627 352.046 529.231 352.757 530.101 353.114C527.451 354.247 525.497 351.45 523.685 351.089C521.952 350.745 521.879 351.089 520.167 353.403C518.314 350.546 518.662 352.328 517.138 352.329C516.583 352.33 516.559 353.389 515.657 353.262C514.869 353.15 514.786 351.64 514.32 351.462C511.792 350.495 509.19 355.362 506.323 351.14C505.628 355.533 497.667 350.03 494.603 350.803C491.392 351.61 492.778 353.065 490.183 350.578C487.71 348.209 488.4 349.783 485.523 351.722C485.591 351.676 483.9 353.12 484.057 353.143C482.066 352.849 482.179 350.247 479.658 350.385C476.99 350.532 475.85 353.176 473.408 349.922C472.876 352.359 472.767 351.309 471.515 351.923C470.827 352.13 470.225 351.901 469.708 351.238C469.552 351.908 469.208 352.319 468.676 352.47C467.313 352.624 464.754 352.864 463.516 352.035C461.658 350.789 463.152 350.311 461.863 348.91C461.286 352.772 460.02 351.951 457.351 352.312C455.315 352.587 454.866 351.797 452.921 351.414C451.006 351.036 448.53 351.975 446.662 352.376C445.89 352.542 444.857 353.221 444.072 352.983C443.365 352.768 443.061 352.073 442.638 351.892C442.125 351.673 442.235 351.105 441.348 350.831C440.737 350.642 439.642 351.367 439.031 351.493C434.675 352.386 430.49 352.395 426.335 350.229C428.382 354.775 421.552 352.321 420.334 350.439C418.811 353.453 416.97 351.325 413.902 351.56C410.948 351.787 406.505 352.93 405.307 348.28C405.073 349.224 403.396 351.968 402.729 352.387C400.792 353.6 400.561 351.806 398.761 351.075C396.31 350.079 396.821 351.968 395.302 352.352C392.736 353.001 391.35 350.718 389.083 349.505C388.987 351.391 388.937 352.552 387.647 353.727C386.503 348.466 382.424 354.158 383.124 347.126C381.572 348.403 379.388 349.385 378.946 351.968C381.542 351.066 379.223 353.211 379.114 353.282C378.771 353.509 377.612 351.452 377.343 351.162C377.269 352.132 377.197 353.103 377.123 354.073C376.089 353.419 375.118 352.249 374.279 351.662C373.523 351.134 374.606 350.035 373.329 349.96C372.655 349.919 371.953 351.762 371.246 351.92C370.165 352.159 370.684 350.199 370.232 350.265C369.543 350.365 368.42 351.639 367.899 351.615C366.19 351.535 367.347 350.529 366.043 350.069C363.713 349.244 363.863 351.17 362.188 351.865C358.356 353.455 358.741 346.138 354.843 351.018C353.91 352.186 353.31 353.989 352.032 353.888C349.386 353.678 350.315 349.714 350.853 347.773C351.409 348.119 341.186 354.757 341.267 354.497C341.331 352.905 342.939 351.678 341.502 350.264C340.328 353.45 339.091 353.506 336.382 354.099C335.064 354.388 334.805 354.773 333.396 354.081C332.498 353.641 331.895 351.831 331.003 351.731C331.123 351.745 329.484 353.321 329.234 353.463C327.755 354.305 326.819 353.35 325.383 353.697C324.157 353.992 323.675 355.309 322.456 354.949C320.829 354.468 321.785 352.013 319.547 352.698C318.781 352.932 318.322 354.795 317.116 355.18C315.237 355.781 312.933 354.66 310.948 355.245C309.372 355.71 308.201 355.907 306.823 356.004C305.71 356.083 306.167 354.988 304.118 356.28L303.248 353.511C302.222 354.678 301.196 355.843 300.17 357.01C299.975 355.964 299.852 354.906 299.799 353.833C298.269 355.771 296.341 356.101 294.284 356.276C292.056 356.464 290.396 357.078 288.229 357.594C287.543 357.755 285.778 358.015 285.215 357.712C285.297 357.757 284.16 357.159 284.503 357.273C284.355 356.892 284.218 356.506 284.091 356.113C283.9 355.02 283.278 354.972 282.227 355.969C281.683 355.863 280.629 354.961 280.087 355.184C278.689 355.756 278.879 357.127 277.485 356.926C276.582 356.795 276.12 355.107 275.179 354.992C273.739 354.817 272.491 356.855 271.193 357.299C275.139 355.945 266.075 356.996 268.893 357.089C267.045 357.028 265.127 356.912 263.419 357.959C262.476 357.144 263.621 355.505 262.668 354.83C261.803 354.218 261.737 355.834 261.636 355.87C262.181 355.674 261.909 357.049 261.363 357.294C259.663 358.056 258.302 356.119 258.214 354.197C256.769 356.946 256.364 355.841 254.238 356.011C252.143 356.178 250.336 357.567 248.239 357.541C244.093 357.491 241.279 355.67 239.895 350.99C244.313 351.671 248.76 348.08 253.08 348.925C254.5 349.203 255.387 350.552 256.631 350.312C258.164 350.018 259.234 347.904 261.199 347.676C265.534 347.175 269.807 347.663 274.172 346.823C279.385 345.82 284.826 345.225 290.089 345.714C294.156 346.092 297.45 344.126 301.574 343.748C306.907 343.257 312.284 343.17 317.627 342.816C323.115 342.452 329.022 341.345 334.495 341.7C336.204 341.81 337.675 342.022 339.371 341.893C340.088 341.838 340.767 341.223 341.52 341.314C342.5 341.434 342.921 342.702 343.937 342.658C345.665 342.584 347.512 340.784 349.565 340.735C352.942 340.655 356.305 340.664 359.69 340.421C362.671 340.207 365.864 339.328 368.831 339.375C370.924 339.408 371.441 341.662 372.661 341.895C374.854 342.313 385.948 334.333 386.907 341.495C392.683 336.499 400.429 340.729 406.858 339.791C415.117 338.584 423.528 339.659 431.843 339.23C440.304 338.793 449.008 339.197 457.436 340.206C460.927 340.623 464.3 341.016 467.801 340.762C469.361 340.649 471.165 340.145 472.726 340.6C473.103 340.711 475.998 343.264 475.639 343.337C477.22 341.544 476.15 341.281 478.931 341.189C481.075 341.118 483.102 341.703 485.234 341.862C489.06 342.148 492.915 341.478 496.734 341.626C499.921 341.749 503.038 342.344 506.243 342.373C509.697 342.404 513.776 342.528 516.275 346.048C516.012 344.943 515.749 343.837 515.484 342.732C519.34 343.114 523.15 344.853 527.048 344.04C526.062 345.233 525.061 346.209 524.684 347.96C526.786 347.623 528.209 345.768 530.422 345.753C532.281 345.739 532.668 346.918 534.63 345.395C534.872 347.261 535.113 349.127 535.355 350.991C538.073 350.183 536.29 347.621 536.488 345.312C538.697 346.151 540.567 345.188 539.697 349.205C539.025 352.301 535.967 353.827 533.666 352.884ZM529.847 387.377C528.899 390.742 520.702 388.819 518.764 388.463C516.259 388.005 513.394 387.278 511.088 386.917C510.811 386.451 510.479 386.055 510.093 385.73C509.803 386.24 509.436 386.603 508.992 386.816C507.933 387.109 507.929 388.491 506.538 388.185C506.473 390.23 507.597 389.068 508.458 389.81C506.289 391.648 507.28 389.532 506.063 389.566C505.762 389.025 505.342 388.813 504.803 388.93C504.117 389.154 503.485 389.525 502.907 390.043C502.365 390.766 501.9 390.804 501.513 390.156C501.143 389.685 500.691 389.394 500.157 389.283C498.02 389.723 497.422 390.921 495.016 390.726C491.577 390.445 487.857 391.591 484.473 390.988C482.375 390.614 478.87 386.449 477.918 390.509C476.468 387.499 474.158 385.451 472.77 382.375C479.237 381.903 485.703 381.34 492.176 381.044C497.844 380.786 504.044 381.592 509.34 381.255C514.302 380.938 519.556 380.245 524.621 379.673C529.991 379.067 531.768 380.556 529.847 387.377ZM361.114 387.874C363.462 388.695 365.699 386.832 367.976 387.421C368.729 387.615 370.288 389.349 370.631 389.382C371.258 389.446 373.102 387.744 373.892 387.516C378.895 386.078 384.955 386.231 389.957 387.115C392.608 387.583 393.014 386.05 395.327 385.305C397.732 384.53 401.149 385.127 403.682 384.913C409.638 384.409 415.592 384.768 421.508 384.218C427.582 383.652 433.626 383.346 439.702 382.951C443.842 382.682 453.789 379.697 457.219 383.581C460.048 386.784 456.404 392.344 453.574 393.613C451.458 394.56 450.444 392.564 448.873 392.754C447.084 392.971 447.708 395.643 446.111 393.165C445.122 395.629 438.903 394.578 437.121 394.741C433.237 395.096 429.951 396.081 427.307 391.502C427.487 392.822 427.666 394.143 427.845 395.464C424.339 393.095 420.577 393.854 417.534 394.68C416.027 395.088 411.402 397.912 409.77 396.694C408.646 395.857 410.626 394.424 408.731 393.708C407.737 393.334 406.023 395.418 404.81 395.314C401.451 395.022 402.404 392.167 399.105 395.8C397.988 394.578 397.616 392.502 397.763 390.721C395.367 393.305 395.567 397.611 391.283 396.822C389.686 396.529 389.393 394.47 388.56 394.091C386.787 393.281 386.586 394.737 385.05 395.888C384.47 396.322 383.763 397.021 383.08 397.108C381.678 397.285 381.455 396.471 381.263 396.498C380.33 396.628 379.155 397.227 378.047 396.799C377.053 396.414 376.763 394.198 375.012 394.716C373.336 395.212 373.322 396.651 373.627 398.804C371.974 398.588 370.975 397.425 369.738 396.165C368.49 399.844 365.863 396.797 364.41 399.901C362.517 397.044 361.302 397.831 358.954 395.04C359.07 396.205 359.185 397.369 359.299 398.533C357.467 398.087 356.651 396.453 355.088 398.615C353.57 395.041 348.969 400.133 346.606 396.681C345.552 401.053 338.582 400.007 335.638 400.083C333.029 400.15 331.098 399.88 328.549 400.646C326.296 401.323 323.175 402.024 321.056 401.715C319.672 401.512 318.159 401.191 316.435 401.429C313.948 401.769 311.801 403.396 309.225 402.627C305.347 401.468 302.97 395.03 307.29 392.202C310.246 390.266 315.571 390.983 318.823 390.626C324.214 390.034 330.256 388.793 335.655 389.357C339.865 389.798 343.703 388.527 347.999 387.991C351.234 387.587 356.535 386.86 358.644 390.912C359.454 389.729 359.37 387.264 361.114 387.874ZM302.098 443.336C301.519 439.692 326.166 437.685 328.612 437.447C333.748 436.946 338.898 436.589 344.047 436.424C348.278 436.288 352.228 437.309 356.461 436.488C360.414 435.722 365.186 434.15 368.626 437.687C369.133 432.85 383.968 435.206 386.791 435.22C399.078 435.276 410.835 435.312 422.72 434.35C429.512 433.801 436.724 433.061 443.517 433.49C446.582 433.685 449.049 434.717 452.096 433.821C454.083 433.237 456.225 432.021 458.126 433.739C460.35 435.752 461.3 442.582 459.768 445.433C458.652 447.511 457.664 447.28 455.881 446.921C453.14 446.37 451.103 445.568 448.308 446.977C448.761 446.748 446.435 447.404 446.628 447.385C443.462 447.684 439.12 450.479 436.392 447.257C437.484 447.499 439.073 445.033 437.695 444.83C436.66 444.678 436.004 446.08 435.196 446.55C432.434 448.156 431.02 447.654 429.37 444.284C426.044 447.924 425.685 446.916 424.225 442.435C423.1 443.529 422.859 446.118 421.973 446.968C421.842 447.094 422.386 448.667 421.747 448.602C421.154 448.541 420.96 447.313 420.505 447.216C420.213 447.154 420.062 446.077 419.783 446.011C419.481 445.94 419.17 446.628 418.828 446.608C417.913 446.553 415.299 449.012 416.237 445.561C414.852 447.789 414.256 446.368 413.756 444.342C412.157 445.879 410.558 447.415 408.958 448.951C408.214 446.338 406.935 447.05 405.324 447.962C405.81 446.147 405.505 444.431 404.288 445.693C403.583 446.423 403.11 448.743 402.389 449.728C399.469 445.99 398.408 447.015 394.373 447.501C392.834 447.686 390.92 448.046 389.545 446.87C388.335 445.837 387.651 442.045 385.583 445.109C386.044 444.427 385.322 449.66 385.194 450.492C384.283 449.715 383.508 448.759 382.87 447.626C381.68 450.604 378.555 447.932 375.995 448.54C371.965 449.499 367.807 451.112 364.247 447.321C363.995 448.545 361.079 450.104 361.075 450.151C361.248 447.984 362.33 448.746 360.12 448.334C359.714 448.259 359.253 449.184 358.868 449.285C357.551 449.629 356.012 449.302 354.685 449.254C349.163 449.053 344.107 450.6 338.654 451.161C336.815 451.349 334.635 451.72 332.909 450.845C331.131 449.941 331.18 448.916 329.381 449.498C329.95 449.314 328.257 451.562 328.349 451.477C328.107 451.7 327.098 450.603 326.739 450.685C326.635 451.164 326.531 451.644 326.426 452.123C325.992 452.056 325.558 451.988 325.125 451.921C323.94 452.122 322.87 450.605 321.756 450.554C321.961 450.563 318.749 452.074 318.895 452.166C316.653 450.753 317.297 451.162 314.453 452.023C311.764 452.836 309.088 452.646 306.329 453.154C298.306 454.626 303.086 449.544 302.098 443.336ZM295.012 494.038C293.504 491.334 297.518 490.399 298.8 490.16C300.909 489.767 303.706 490.549 305.111 490.125C307.251 489.482 309.316 487.947 311.726 487.53C314.765 487.004 317.83 486.92 320.882 486.59C321.899 486.48 323.158 486.038 324.147 486.112C325.621 486.224 326.233 487.209 327.422 487.216C329.448 487.229 331.948 485.612 334.025 485.316C336.684 484.934 339.37 484.756 342.042 484.588C347.672 484.235 353.244 484.381 358.871 484.373C361.437 484.369 368.272 481.002 369.552 484.777C371.331 481.917 375.895 482.306 378.439 482.224C382.92 482.078 387.355 481.532 391.833 481.269C395.667 481.043 399.951 482.081 403.716 481.354C405.79 480.953 406.478 480.114 408.831 480.493C410.579 480.773 413.244 479.605 414.745 480.122C414.667 480.095 416.617 481.622 416.009 481.671C416.679 481.616 416.639 482.209 417.378 481.944C418.349 481.599 417.903 480.057 419.914 479.509C423.052 478.654 427.235 479.644 430.494 479.424C433.656 479.211 436.813 479.119 439.978 479.138C441.435 479.146 443.237 478.706 444.654 479.066C445.349 479.241 446.825 480.387 447.413 480.272C449.082 479.943 449.931 478.478 452.186 478.569C454.742 478.671 457.043 478.627 459.584 478.38C462.045 478.143 462.44 477.699 463.66 480.287C464.869 482.854 465.202 486.197 462.977 487.942C464.423 487.822 466.2 490.268 464.497 491.622C463.445 492.46 461.334 490.571 460.074 490.707C458.522 490.876 457.303 491.913 455.613 491.977C453.837 492.046 452.033 492.611 450.281 492.654C448.457 492.7 447.077 491.669 445.346 492.108C443.823 492.495 443.662 494.072 441.829 492.687C440.918 491.997 440.763 489.445 439.52 489.422C437.854 489.389 438.519 492.11 437.561 493.37C437.303 489.48 434.927 495.917 433.982 491.194C433.112 492.762 429.888 494.956 428.326 493.696C426.902 492.548 427.375 489.95 426.782 488.078C425.794 491.442 423.145 494.933 423.385 488.808C422.098 490.809 418.621 490.493 419.493 493.997C418.445 493.971 418.197 492.08 417.314 491.937C416.553 491.813 415.948 492.553 415.831 492.541C416.249 492.586 414.584 493.286 414.558 493.293C415.685 493.003 411.307 492.51 412.053 492.518C411.037 492.508 409.793 493.559 408.606 493.556C407.524 493.552 406.448 493.014 405.38 492.86C402.61 492.46 403.186 493.229 401.448 494.328C400.804 494.735 400.642 495.425 399.728 495.339C399.053 495.275 398.8 494.162 398.724 494.153C397.775 494.032 398.476 493.629 397.002 493.815C396.833 494.183 396.665 494.549 396.496 494.917C395.964 495.778 395.273 495.993 394.426 495.564C392.245 496.154 385.013 498.717 385.722 493.972C384.613 494.656 383.506 495.341 382.397 496.026C381.922 492.201 375.902 497.273 374.557 497.529C372.832 497.856 372.672 497.02 371.041 496.574C370.747 496.494 370.158 497.72 369.468 497.544C367.679 497.09 367.36 496.864 367.053 494.407C365.777 497.422 364.716 496.074 362.402 496.57C361.89 496.68 361.562 497.954 360.827 497.734C360.298 497.576 360.283 496.352 359.918 496.194C359.589 496.051 359.639 495.085 359.154 494.948C358.599 494.79 356.705 496.752 356.162 497.055C354.937 497.738 352.925 498.867 351.729 498.529C350.25 498.111 350.908 496.726 348.819 496.881C345.523 497.126 344.148 500.671 342.097 495.084C341.171 497.322 341.289 497.929 339.803 498.668C338.704 499.214 335.922 498.644 334.476 498.576C328.299 498.288 322.226 500.948 316.101 500.251C313.409 499.945 311.138 499.265 308.421 499.821C305.566 500.407 302.774 501.268 299.877 501.615C298.405 501.79 295.327 502.325 294.605 499.945C293.969 497.85 296.341 496.422 295.012 494.038ZM307.126 579.935C299.114 586.71 292.479 595.961 285.123 603.794C277.747 611.648 271.895 620.378 265.262 629.076C259.129 637.115 253.496 644.721 246.082 650.795C241.39 654.641 237.205 659.373 232.386 662.999C228.776 665.714 223.308 669.285 225.069 660.981C226.875 652.469 230.207 643.867 233.1 635.919C237.214 624.621 241.359 613.427 245.81 602.343C247.483 598.178 248.418 594.033 251.071 590.715C253.957 587.104 255.978 582.391 259.14 578.979C272.435 564.631 292.473 575.716 307.126 579.935ZM332.258 584.8C328.624 587.208 324.556 587.805 320.705 589.397C317.423 590.753 314.371 593.166 310.841 593.345C314.055 590.295 316.815 586.152 320.438 583.837C324.512 581.232 328.211 583.129 332.258 584.8ZM491.77 604.867C478.403 599.166 465.957 590.765 452.937 584.004C450.689 582.837 433.112 575.52 433.469 572.037C445.787 569.185 458.472 564.29 470.819 569.627C482.052 574.482 491.188 586.127 499.884 595.874C502.152 598.417 516.183 609.998 514.928 613.686C514.058 616.243 507.298 615.545 505.701 615.022C503.639 614.344 502.451 612.762 500.833 611.023C498.129 608.118 495.137 606.302 491.77 604.867ZM467.093 509.618C469.123 507.256 470.339 503.673 472.278 501.494C474.77 498.693 478.791 500.057 481.515 501.512C489.689 505.878 496.676 513.218 504.799 517.773C513.802 522.821 521.596 529.568 529.716 536.521C537.138 542.875 545.163 548.136 552.739 554.202C560.459 560.383 569.101 564.401 576.927 570.362C584.892 576.431 592.825 582.524 600.479 589.21C614.127 601.134 628.338 613.378 638.435 630.331C643.624 639.045 648.482 648.928 652.29 658.713C655.752 667.609 659.507 679.956 655.021 689.21C650.713 698.096 643.37 705.096 637.154 711.726C634.8 714.236 632.561 717.286 629.511 718.375C625.8 719.698 621.47 719.332 617.653 719.723C597.247 721.815 578.237 719.841 558.127 715.228C538.737 710.781 519.266 708.29 499.727 705.198C488.705 703.454 477.684 701.424 466.811 698.519C462.163 697.278 457.433 695.846 452.885 694.155C448.914 692.677 445.573 689.425 441.489 688.136C424.157 682.665 404.326 680.574 387.167 671.372C402.352 663.395 418.489 658.577 434.051 651.949C450.431 644.974 466.428 639.12 483.693 637.138C492.577 636.118 500.528 633.251 509.074 630.249C517.218 627.389 525.72 626.512 534.085 625.23C537.805 624.66 548.422 625.514 549.654 619.368C551.49 610.216 541.059 609.16 536.612 609.98C530.304 611.142 525.102 613.133 520.275 606.592C515.345 599.911 510.555 593.073 505.537 586.477C496.231 574.248 486.639 560.105 473.485 554.618C457.437 547.925 438.827 554.278 422.815 558.084C405.903 562.104 389.017 565.954 372.422 571.798C365.549 574.217 356.686 579.548 349.553 578.692C342.524 577.846 334.562 576.392 327.769 573.83C324.695 572.671 322.168 570.523 319.418 568.52C315.842 565.914 311.923 564.245 308.128 562.22C300.453 558.125 292.971 554.354 284.691 552.744C277.718 551.389 270.313 550.585 263.555 553.675C256.926 556.706 251.052 562.878 246.426 569.471C241.402 576.634 237.249 584.662 233.131 592.665C231.154 596.506 228.741 599.858 226.694 603.613C224.975 606.766 223.971 610.27 222.152 613.335C218.081 620.192 215.317 628.964 212.85 636.941C210.109 645.802 207.064 656.339 207.718 665.978C207.965 669.621 208.224 674.446 209.339 677.824C210.757 682.121 212.779 682.012 215.694 683.632C220.701 686.416 222.106 694.112 228.577 692.611C234.647 691.205 239.911 684.882 244.34 679.842C250.112 673.276 255.637 666.351 261.16 659.452C266.828 652.372 272.413 644.519 276.922 636.189C278.697 632.91 280.08 629.206 282.178 626.22C284.849 622.416 287.848 621.959 291.476 620.445C323.196 607.198 355.069 594.42 387.779 585.674C395.616 583.578 403.516 580.874 411.214 578.085C419.379 575.127 423.608 578.253 430.346 583.883C444.424 595.649 461.064 603.936 476.741 611.612C481.677 614.03 489.535 614.183 493.393 618.95C470.522 623.356 448.725 631.836 426.665 640.28C415.788 644.442 404.787 648.051 393.869 652.032C382.947 656.015 372.441 661.175 361.669 665.665C350.949 670.133 339.619 671.956 328.795 676.077C317.745 680.284 306.742 683.178 295.4 685.735C283.948 688.319 272.575 691.299 261.084 693.611C255.822 694.67 250.562 695.768 245.358 697.224C240.267 698.65 235.348 702.063 230.231 702.854C207.381 706.388 184.979 714.262 162.217 718.712C145.221 722.036 115.654 726.671 104.633 705.119C93.5509 683.445 107.147 658.162 119.279 642.665C126.818 633.033 135.29 624.557 144.178 617.015C153.691 608.945 162.843 600.23 172.357 592.171C193.889 573.934 217.237 559.06 240.37 544.406C251.474 537.372 262.201 529.829 273.003 522.109C278.363 518.278 281.33 524.46 285.568 528.662C288.901 531.968 295.021 540.115 299.684 536.348C299.864 537.705 300.044 539.061 300.223 540.418C301.589 539.631 302.956 538.845 304.322 538.057C305.239 541.099 305.131 542.988 307.695 544.585C309.269 545.567 312.627 546.748 314.128 545.019C314.434 546.221 314.741 547.421 315.047 548.621C316.358 548.495 316.612 543.751 316.859 542.64C319.108 546.791 322.217 550.259 326.169 551.432C326.188 551.161 325.526 547.751 325.555 547.731C326.805 546.763 328.382 550.906 329.045 551.794C331.242 554.733 332.553 554.277 334.981 551.904C335.157 552.146 335.979 554.856 336.098 554.808C336.624 554.597 337.622 552.195 337.731 551.976C337.579 555.136 342.404 555.772 344.108 555.094C343.726 554.168 343.343 553.243 342.962 552.317C348.897 551.316 351.227 559.286 356.924 558.881C361.136 558.581 357.758 557.418 360.141 555.138C362.223 553.145 362.595 557.503 362.799 557.364C363.196 556.839 363.504 556.235 363.722 555.552C364.493 559.284 370.628 562.631 369.994 556.495C372.408 557.716 374.121 559.741 376.792 560.169C380.039 560.689 383.507 559.818 386.745 559.478C393.724 558.744 400.303 556.944 406.594 552.903C410.324 550.507 414.294 548.333 417.799 545.442C420.733 543.023 426.3 535.678 430.206 538.841C429.206 535.111 433.916 538.568 434.066 533.763C434.823 534.484 435.579 535.204 436.336 535.925C436.79 534.668 436.663 532.687 437.27 531.591C438.105 530.086 438.512 530.972 439.224 530.125C440.02 529.178 440.714 526.641 441.669 525.919C442.652 525.176 443.809 526.062 444.867 525.413C446.479 524.423 453.409 514.764 452.236 523.04C455.216 521.76 452.918 520.59 453.291 518.08C454.038 513.05 455.858 516.67 457.671 517.109C460.639 517.828 460.579 514.726 462.234 512.472C463.745 510.413 466.587 509.492 465.608 505.916C466.725 506.678 466.963 508.169 467.093 509.618ZM288.174 402.185C285.836 405.477 284.085 404.069 281.486 403.586C281.207 402.408 280.732 402.245 280.06 403.097C279.29 403.656 278.462 404.025 277.574 404.201C275.443 404.865 273.229 404.582 271.143 405.588C271.203 404.705 271.936 403.136 271.467 402.239C269.273 404.156 267.914 405.377 265.221 405.413C263.039 405.442 259.208 403.335 257.397 405.853C257.341 404.873 257.285 403.893 257.229 402.913C256.342 403.471 255.57 404.219 254.913 405.157C254.789 403.704 254.72 402.606 253.96 401.431C252.519 405.179 250.94 405.267 248.139 403.835C248.531 404.035 245.335 401.668 245.458 402.324C244.447 396.943 260.397 397.388 262.072 397.175C266.253 396.641 270.434 396.331 274.622 395.844C278.594 395.382 281.558 394.599 284.307 398.788C283.082 392.738 294.671 393.038 288.174 402.185ZM105.304 308.36C105.744 317.507 107.354 327.229 104.541 336.032C102.278 343.108 97.7662 351.099 92.9056 355.717C82.9528 365.172 74.5166 353.603 73.1314 340.888C71.6873 327.626 74.5497 311.421 83.5842 303.243C88.9826 298.358 94.2099 298.696 100.425 300.303C101.885 300.681 104.255 300.535 105.089 302.369C105.285 302.798 105.109 308.352 105.304 308.36ZM237.493 430.223C235.774 431.32 233.975 431.962 232.46 433.454C231.933 433.973 231.754 435.154 231.195 435.59C230.178 436.385 228.725 435.858 227.665 436.514C225.911 437.597 224.654 439.147 222.569 440.145C219.473 441.628 216.759 443.662 213.833 445.59C208.958 448.803 203.726 451.561 198.629 454.177C196.056 455.497 188.941 458.071 189.187 462.832C188.612 463.028 188.024 461.437 186.822 461.564C185.173 461.737 182.993 464.148 181.281 464.742C178.077 465.85 175.597 465.948 175.597 471.11C174.578 470.234 174.319 468.092 172.962 467.808C171.435 467.488 170.793 469.57 169.571 470.218C168.133 470.981 166.344 470.249 164.919 471.061C164.296 471.894 163.604 472.621 162.842 473.241C162.067 473.354 161.296 473.325 160.528 473.151C157.504 473.961 154.721 475.399 151.69 476.146C148.735 476.875 146.712 477.14 147.954 481.556C144.794 482.338 144.022 478.099 140.456 479.649C136.086 481.548 132.001 482.918 127.438 484.077C125.112 484.668 122.68 485.987 120.337 486.296C118.665 486.517 117.104 485.761 115.458 485.996C113.473 486.278 111.878 487.44 109.825 487.483C107.877 487.526 105.832 487.084 103.919 486.65C104.189 487.623 104.528 488.557 104.934 489.452C103.611 489.102 103.001 487.092 101.88 486.794C100.703 486.482 99.6487 488.017 98.6688 487.677C98.2515 487.531 98.5291 485.905 97.7827 485.595C97.1026 485.313 96.8158 485.646 96.1411 485.512C95.9159 485.468 93.094 485.275 92.6446 485.575C91.8587 486.102 92.6537 487.088 92.4975 487.235C89.8438 489.717 89.8117 488.377 88.6287 485.784C86.8914 481.978 84.7966 484.38 81.6393 483.714C78.1207 482.972 75.3484 484.934 71.885 484.655C68.1494 484.354 63.7594 480.821 60.4568 478.757C53.325 474.302 46.3705 470.085 40.3811 463.338C28.6727 450.147 19.1472 433.924 13.5311 415.352C7.49668 395.401 6.35322 374.592 6.83763 353.425C7.129 340.694 7.93512 327.972 9.52254 315.391C10.6154 306.737 10.8443 291.358 18.5636 287.417C19.8908 307.68 15.7031 328.328 18.3439 348.46C19.139 354.524 21.0784 362.604 24.7487 367.095C30.1829 373.743 31.4541 364.133 31.9458 358.824C32.8604 348.966 34.56 339.161 35.7632 329.35C36.9655 319.541 37.8148 309.624 39.4868 299.919C40.0962 296.38 45.0119 270.467 48.6197 271.694C47.8899 290.546 45.9513 309.072 45.875 327.993C45.8447 335.582 45.307 343.598 46.1738 351.137C46.6196 355.016 49.4148 366.4 54.2221 365.451C58.6709 364.573 53.78 356.554 53.3645 353.462C52.2642 345.276 53.6669 335.092 54.6927 326.967C56.634 311.592 60.9652 295.844 68.0446 282.995C74.3851 271.49 84.1477 260.537 95.9086 262.566C100.934 263.433 104.854 265.011 107.379 270.81C109.36 275.362 117.164 280.534 112.641 286.232C108.524 291.42 101.866 287.268 97.2892 286.031C91.6859 284.517 85.6809 286.338 80.9949 290.489C72.9549 297.608 68.3728 310.336 66.8773 322.273C64.8615 338.368 70.2498 380.498 90.0957 371.056C103.279 364.782 113.209 342.218 112.103 324.943C111.659 318.028 109.52 304.9 117.089 303.033C126.786 300.641 128.156 314.153 127.174 322.933C125.747 335.705 120.406 347.582 114.297 357.68C108.972 366.481 102.778 371.984 96.3709 379.253C94.4737 381.405 89.6352 386.243 90.4477 390.245C91.3384 394.632 98.9428 395.879 101.988 396.6C117.051 400.164 134.039 396.885 149.076 394.397C179.984 389.281 210.485 376.681 235.828 353.515C236.852 367.849 238.143 382.134 238.618 396.52C238.849 403.503 238.908 410.587 239.539 417.531C239.928 421.804 241.333 427.771 237.493 430.223ZM151.793 480.167C150.579 480.969 151.891 476.117 151.554 477.722C153.366 478.543 153.446 479.359 151.793 480.167ZM280.005 306.706C281.931 304.023 287.194 297.639 288.864 303.697C289.485 301.115 289.566 297.29 291.965 300.777C292.92 296.493 303.457 296.894 306.066 296.705C314.422 296.101 322.813 295.778 331.14 294.729C348.25 292.573 365.659 293.685 382.832 293.614C386.551 293.599 390.26 293.344 393.951 294.026C397.514 294.684 401.258 296.53 404.889 295.856C408.117 295.256 410.234 294.131 413.557 294.612C417.533 295.188 421.392 295.598 425.404 295.579C443.147 295.497 460.88 296.406 478.627 296.441C482.086 296.448 486.229 295.594 489.474 297.45C490.676 298.139 491.99 300.43 492.908 300.681C493.961 300.968 493.335 298.893 494.744 299.83C496.631 301.084 495.17 304.942 493.924 305.554C494.67 305.187 492.576 304.826 492.786 304.813C491.792 304.88 490.945 305.843 489.878 305.783C488.252 305.693 486.892 304.44 485.582 303.338C485.56 303.788 486.28 306.79 485.458 306.941C484.751 307.073 484.089 304.112 484.018 303.424C480.048 307.85 475.842 305.383 470.915 305.943C467.421 306.341 460.135 309.287 457.697 304.676C457.596 305.657 457.284 306.515 456.764 307.252C456.067 308.593 455.465 308.479 454.956 306.906C454.784 306.917 453.087 307.383 453.054 307.38C451.859 307.26 450.31 306.718 449.095 306.586C447.214 306.384 447.561 308.114 446.062 308.142C445.244 308.157 443.158 306.663 441.731 306.57C439.26 306.407 436.736 307.732 434.299 307.331C432.62 307.055 431.104 305.329 429.457 305.262C427.406 305.175 426.74 307.153 425.115 304.375C424.781 304.261 424.576 305.896 424.443 305.923C424.475 305.916 422.896 306.212 422.71 306.304C422.385 306.461 421.123 307.191 420.739 307.199C419.909 307.219 419.459 306.468 418.579 306.45C417.124 306.419 412.478 308.038 412.608 304.636C407.415 307.068 402.984 306.12 397.654 306.695C395.208 306.96 393.672 306.546 391.346 305.978C388.432 305.267 386.497 306.161 383.59 306.341C380.798 306.514 379.917 305.021 377.561 303.673C376.63 303.141 376.016 302.44 374.876 302.735C374.226 302.904 374.688 304.288 374.496 304.382C373.494 304.871 372.795 304.353 371.422 304.472C368.885 304.69 367.876 307.369 365.269 304.854C366.135 304.722 367.002 304.587 367.869 304.454C365.376 303.119 362.086 302.437 362.69 307.301C360.564 306.924 362.404 305.094 361.359 304.439C360.314 303.785 359.144 304.88 357.828 305.421C354.352 306.846 351.454 306.139 347.83 305.883C343.712 305.592 334.078 309.839 331.129 304.325C331.041 305.487 330.054 308.724 328.74 308.572C328.312 308.522 329.506 305.086 329.641 304.722C328.965 306.542 325.878 306.888 324.357 307.832C324.528 306.854 324.698 305.876 324.868 304.899C323.456 306.799 322.769 305.64 321.108 306.275C320.381 306.553 319.33 308.446 318.709 308.56C317.985 307.5 317.075 307.044 315.98 307.191C315.251 306.961 314.522 306.916 313.794 307.056C310.877 307.324 308.218 309.372 305.317 307.978C302.806 306.768 301.834 303.659 300.337 308.606C299.943 307.726 299.549 306.847 299.155 305.968C298.67 306.923 298.183 307.876 297.697 308.83C295.797 307.258 295.68 306.347 293.494 306.925C292.981 307.183 292.454 307.147 291.915 306.816C291.787 307.301 291.658 307.785 291.529 308.268C291.478 309.486 291.192 309.889 290.672 309.475C290.234 309.276 289.839 308.975 289.487 308.57C288.04 308.709 286.193 309.191 284.64 308.925C284.041 308.823 280.284 306.317 280.005 306.706ZM324.272 273.96C324.442 274.291 324.613 274.621 324.783 274.951C322.435 276.52 321.882 275.619 321.64 272.471C322.787 272.499 322.983 275.05 324.272 273.96ZM325.727 272.113C326.858 272.744 328.155 273.983 329.22 272.323C329.937 274.957 324.612 278.553 325.727 272.113ZM333.031 273.276C335.405 275.305 329.71 273.674 329.719 273.678C330.743 272.483 331.846 272.349 333.031 273.276ZM353.453 261.966C354.267 267.159 356.512 267.011 360.138 264.598C365.424 261.077 366.316 255.31 366.685 248.425C367.039 241.824 367.678 239.268 373.063 240.647C376.823 241.609 380.002 240.8 383.792 240.668C387.836 240.527 389.261 241.308 389.586 246.568C389.913 251.835 390.653 255.834 393.678 259.842C396.752 263.917 400.852 266.351 404.846 268.631C406.901 269.802 408.83 271.063 411.103 271.316C411.984 271.415 416.568 270.682 416.664 272.516C416.735 273.894 410.387 277.782 409.713 278.245C406.769 280.269 403.833 282.084 400.617 283.31C393.219 286.132 385.374 286.299 377.71 286.128C365.354 285.853 348.278 279.247 340.889 265.391C345.077 264.25 349.265 263.108 353.453 261.966ZM352.344 216.995C350.389 214.921 349.123 211.789 347.499 209.333C346.68 208.094 346.08 207.7 345.3 207.08C344.48 206.427 344.017 207.351 343.332 205.817C341.563 201.851 347.023 196.271 341.232 194.745C339.273 194.227 334.558 196.19 333.986 192.642C333.177 187.625 340.753 187.297 342.535 184.751C346.08 179.688 343.674 171.106 345.833 165.265C347.876 159.733 353.151 158.75 357.314 157.088C363.115 154.773 368.986 153.431 374.876 151.578C378.995 150.283 385.837 145.08 389.656 149.677C383.762 151.331 387.188 153.928 391.117 155.393C395.566 157.054 400.283 157.702 404.893 158.165C409.64 158.641 414.477 158.732 419.166 157.536C423.503 156.43 428.347 151.665 432.894 152.885C430.371 158.43 422.855 161.459 418.288 162.912C415.96 163.652 414.47 163.421 414.783 167.088C415.085 170.643 417.53 174.207 418.083 177.91C418.812 182.81 418.174 187.313 416.795 191.922C415.437 196.456 415.12 197.048 416.307 201.381C418.155 208.128 414.182 215.584 410.509 220.484C395.658 240.293 367.236 232.789 352.344 216.995ZM390.082 98.6001C390.091 98.7257 390.141 98.8025 390.082 98.6001ZM394.707 148.593C394.091 149.175 390.545 150.394 390.693 148.642C390.891 146.294 394.087 147.142 394.707 148.593ZM402.79 101.174C401.958 100.39 399.627 100.712 401.331 97.7404C401.887 99.0479 402.339 100.111 402.79 101.174ZM346.855 82.3871C347.915 78.9032 349.09 75.6625 349.568 71.9541C349.863 69.6696 349.277 67.0605 351.804 66.7022C348.584 64.9271 348.551 57.921 348.36 54.2895C348.099 49.2876 346.849 42.5909 348.588 37.9357C350.373 33.1537 352.782 33.2328 353.509 38.9279C353.794 41.1578 352.704 41.879 352.499 43.4319C352.095 46.504 352.9 45.8305 354.468 43.4901C355.115 45.8689 355.363 49.4435 357.998 49.2923C357.822 48.649 356.813 47.2299 357.15 46.4307C357.668 45.2035 360.198 47.0786 360.519 47.3625C362.83 49.4051 363.331 51.2697 361.683 53.8463C363.964 54.1568 362.05 56.681 363.522 57.3394C365.769 58.3433 364.262 53.5869 364.018 52.7505C365.386 53.4252 365.845 54.1952 366.711 55.5609C367.219 56.5031 367.682 57.4813 368.1 58.4933C368.565 60.3405 369.522 60.8035 370.975 59.8822C373.885 61.0361 377.902 60.8558 380.51 62.8729C381.702 63.7941 382.132 65.81 383.127 66.5754C384.247 67.4374 385.747 67.0465 386.95 67.5874C386.51 68.8507 386.866 69.5346 388.017 69.6417C388.912 69.7452 389.777 69.9999 390.615 70.4047C391.241 69.808 391.923 69.3369 392.658 68.9937C393.153 70.0953 393.851 70.3675 394.756 69.8127C397.439 70.4478 398.728 71.7308 400.433 73.649C401.965 75.3705 400.718 75.5101 402.396 75.3577C403.07 75.2961 404.251 73.8514 405.792 74.1329C406.679 74.3515 407.535 74.697 408.359 75.1693C409.249 76.1324 410.195 76.2534 411.195 75.5334C412.82 76.5372 412.98 78.3158 414.961 78.5589C417.152 78.8288 416.447 75.3763 417.952 80.2456C419.978 75.0832 420.721 83.3072 422.813 83.9714C424.979 84.66 425.214 82.4394 427.068 84.8659C427.625 85.5929 427.593 86.7945 428.217 87.5657C429.24 88.8278 430.624 88.5754 431.513 90.297C431.017 89.3362 431.629 93.7017 431.619 93.5575C431.757 95.4838 430.403 97.6416 433.178 97.4776C433.147 97.68 431.814 100.136 431.554 99.8575C431.491 99.5772 431.436 99.2934 431.394 99.006C431.096 99.1677 430.964 101.507 431.019 101.92C431.254 101.966 431.351 101.745 431.308 101.257C430.852 103.061 431.539 104.207 430.663 105.919C430.103 107.014 428.569 107.836 427.752 108.512C425.785 110.143 423.86 111.778 421.94 113.514C417.465 117.562 412.454 122.443 406.817 123.287C409.648 119.774 425.934 106.48 417.765 102.663C416.251 101.956 413.492 101.286 411.908 101.137C409.937 100.952 407.899 102.378 405.726 101.488C403.103 100.416 404.091 97.2996 402.489 96.1817C399.087 93.8099 399.89 99.3876 398.819 100.849C397.694 99.3562 397.935 98.6303 396.159 98.4954C394.356 98.3581 393.927 100.465 391.823 99.1526C388.924 97.3438 390.458 93.7413 386.345 93.6564C386.414 92.8654 387.011 90.6553 386.226 90.0387C385.168 91.7731 385.987 93.7122 385.005 95.3814C384.513 96.219 383.447 96.8866 382.669 97.1577C380.845 97.7905 380.586 99.0025 380.883 95.5326C379.531 98.6094 375.388 97.3438 372.923 97.0344C368.917 96.5307 364.658 95.5722 360.817 93.9483C357.264 92.4455 355.367 89.8643 352.437 87.5157C351.329 86.627 350.801 86.9667 349.212 86.4153C347.644 85.8709 346.117 84.8159 346.855 82.3871ZM355.309 27.9099C355.914 27.4493 356.349 34.3228 355.615 35.6069C354.273 32.9234 351.894 28.9871 355.309 27.9099ZM357.241 25.1682C359.186 22.943 357.835 28.6904 357.478 29.6547C356.758 29.0708 356.037 28.4869 355.317 27.9029C356.236 27.1899 356.466 26.0557 357.241 25.1682ZM430.63 15.9055C448.602 20.6723 466.409 29.5826 480.823 44.2462C493.952 57.6023 503.218 76.5524 508.414 96.7098C513.806 117.633 511.995 140.846 499.165 156.859C492.406 165.293 483.481 170.382 474.975 175.348C470.899 177.727 466.702 179.709 462.611 182.033C459.672 183.703 456.085 186.373 452.732 185.91C454.442 183.635 456.924 183.589 458.995 182.197C461.496 180.515 463.539 177.287 465.696 174.982C467.837 172.693 472.585 165.484 475.875 167.229C475.418 163.389 478.88 161.606 480.439 159.074C482.089 156.395 482.208 153.262 485.248 152.385C481.983 149.156 482.983 143.065 483.692 138.67C484.601 133.048 485.022 127.887 485.38 122.166C486.025 111.851 486.546 98.7129 482.037 89.6456C480.574 86.7015 478.711 83.9958 477.406 80.9377C475.833 77.2526 476.18 74.0084 476.18 69.9685C473.304 72.4113 472.697 67.4304 471.482 65.0027C470.57 63.1811 469.373 62.1633 469.078 59.8718C468.864 58.2037 470.296 57.9222 469.511 56.1739C468.549 57.0928 468.165 58.5166 467.678 59.838C466.789 59.389 467.837 57.8256 467.327 57.3173C467.313 57.3034 465.598 56.3623 465.684 56.4984C464.581 54.7315 464.226 51.799 463.686 49.6959C461.665 50.9894 462.043 50.837 459.789 48.6757C459.392 48.2954 457.409 46.5482 457.222 45.9771C456.35 43.3063 457.878 44.8883 457.451 43.2307C456.224 38.4696 449.336 39.37 448.79 32.2359C445.432 34.9311 444.151 31.1123 442.166 28.3961C440.131 25.6137 436.718 24.5435 436.901 20.1303C435.844 20.5874 434.787 21.0434 433.731 21.4982C434.279 17.4258 429.493 17.6852 427.76 15.6193C428.722 15.6344 429.679 15.7298 430.63 15.9055ZM433.368 268.137C435.033 266.254 434.528 268.76 435.599 268.473C436.516 268.228 436.697 267.352 437.576 267.083C441.197 265.977 446.61 267.367 450.418 267.129C454.828 266.853 462.389 268.011 464.49 274.533C465.757 278.461 463.824 277.124 461.696 276.832C460.045 276.607 458.578 277.029 456.944 277.008C456.136 277.165 455.332 277.15 454.531 276.96C454.139 276.635 453.908 276.176 453.837 275.585C451.564 275.15 449.151 276.85 446.634 276.935C443.275 277.048 440.29 276.233 437.738 273.367C436.723 275.278 436.032 276.226 434.208 276.44C434.16 276.446 432.378 275.539 432.102 275.448C431.737 275.328 430.813 276.297 430.109 276.02C431.358 273.506 431.54 270.202 433.368 268.137ZM662.766 290.835C663.359 288.229 663.855 285.588 664.395 282.964C672.686 294.894 679.941 310.864 683.206 326.163C685.327 336.106 688.627 354.12 678.516 359.248C670.281 363.425 665.688 348.452 663.605 341.077C659.004 324.798 659.004 307.4 662.766 290.835ZM291.833 103.903C291.939 103.876 286.466 107.9 288.269 104.642C288.993 103.332 291.741 102.411 292.96 102.411L291.833 103.903ZM286.568 105.608C285.934 106.282 285.295 106.947 284.649 107.603C284.03 106.366 283.409 105.128 282.79 103.89C284.012 103.239 289.198 102.75 286.568 105.608ZM282.71 230.711C281.565 229.73 280.657 230.251 280.313 231.897C280.313 230.259 280.987 226.454 282.024 226.011C282.694 225.724 279.797 221.391 280.611 220.257C282.682 221.756 281.442 223.193 282.049 225.128C282.323 226.002 283.146 226.828 283.326 227.499C283.631 228.638 284.867 232.554 282.71 230.711ZM277.099 220.961C275.926 221.34 277.98 223.787 277.978 224.869C277.976 225.687 277.2 226.315 276.879 227.434C276.184 229.859 277.38 231.497 275.411 233.348C275.411 228.034 272.59 213.954 278.011 211.365C275.367 208.733 277.539 205.694 279.611 208.844C281.604 211.873 280.335 219.914 277.099 220.961ZM274.275 199.992C273.209 195.216 270.001 193.546 266.336 193.828C266.475 191.383 267.942 187.858 269 192.265C269.436 190.962 269.738 189.263 270.73 188.4C272.402 195.025 280.737 198.686 275.548 205.865C275.124 203.908 274.711 201.947 274.275 199.992ZM264.588 194.184C245.286 195.954 218.187 201.016 202.74 182.315C192.668 170.121 193.206 151.131 201.345 137.583C205.99 129.852 212.33 124.408 218.699 119.223C221.155 117.221 223.237 115.899 225.935 114.749C226.372 114.69 226.783 114.813 227.167 115.119C227.319 114.295 227.685 113.686 228.27 113.288C229.311 112.583 230.796 112.332 231.396 110.869C230.755 113.616 230.426 116.445 230.191 119.288C229.671 118.523 229.151 117.757 228.632 116.992C228.198 122.169 223.93 119.036 221.383 119.682C223.061 122.618 224.261 123.685 224.406 127.565C223.156 124.648 220.541 122.73 218.111 121.79C219.431 126.724 220.364 129.653 219.035 135.065C217.43 133.906 217.322 131.124 215.375 130.457C214.861 133.684 214.77 137.264 214.112 140.396C209.126 137.521 209.612 145.263 211.614 149.093C212.679 151.131 213.202 153.49 214.151 155.447C216.481 160.245 214.711 153.069 217.301 153.41C216.72 158.471 216.517 158.975 219.448 162.681C222.307 166.295 223.791 171.31 226.85 174.705C227.735 173.274 226.342 171.777 226.22 170.408C229.067 171.012 230.4 174.619 233.136 171.424C234.329 174.363 235.621 177.6 238.478 178.204C236.589 173.665 242.106 176.743 243.521 177.387C244.595 177.876 246.516 178.264 246.931 178.453C249.262 179.517 247.664 177.607 249.078 181.096C251.156 180.304 251.94 178.125 254.424 179.965C256.445 181.462 256.449 184.026 256.911 186.652C257.392 184.934 257.878 183.217 258.411 181.523C258.953 181.811 261.228 184.975 260.98 184.99C266.304 184.66 266.115 188.838 264.588 194.184ZM237.486 108.53C238.555 107.582 239.861 108.845 241.061 108.505C242.723 108.036 243.667 106.237 245.524 106.044C245.007 108.13 244.037 107.935 243.218 109.574C242.938 110.132 243.083 111.472 242.835 111.793C240.754 114.487 240.035 112.289 237.911 110.25C238.096 112.709 238.47 113.486 236.637 114.145C234.978 114.743 232.24 112.541 231.403 110.852C232.108 109.068 236.207 109.666 237.486 108.53ZM250.731 104.687C252.533 104.905 250.362 111.626 247.779 105.106C248.752 104.838 249.736 104.699 250.731 104.687ZM259.999 103.388C262.841 102.655 272.322 99.2398 273.378 104.833C273.567 104.693 274.272 101.536 274.6 101.921C275.913 103.465 276.06 105.511 275.96 107.655C274.372 103.476 274.936 107.146 273.861 106.86C273.581 106.784 273.151 107.448 272.44 107.174C271.508 106.815 270.84 104.308 270.251 103.459C269.272 105.227 268.057 107.503 266.095 107.35C264.706 107.242 262.468 102.721 264.267 107.67C263.211 107.229 261.988 106.231 260.811 106.431C259.494 106.655 258.81 108.299 257.575 108.564C254.838 109.15 254.425 105.821 252.648 104.014C255.099 103.833 257.579 104.011 259.999 103.388ZM277.196 103.334C277.396 102.187 279.883 101.724 280.517 102.089C282.063 102.976 281.491 104.147 281.207 106.097C280.06 105.411 278.913 104.726 277.766 104.039C279.478 107.524 276.376 108.03 277.196 103.334ZM758.671 307.471C758.468 299.119 758.276 290.622 756.601 282.491C755.429 276.801 752.549 266.597 747.102 265.61C738.887 264.12 734.338 284.641 732.036 291.686C731.576 283.392 731.978 274.564 729.5 266.693C727.516 260.384 722.503 254.41 718.185 261.494C714.343 267.799 713.605 277.106 712.594 284.691C711.283 294.52 710.496 304.425 709.54 314.314C705.787 305.149 705.132 294.658 702.166 285.132C699.368 276.144 694.964 267.559 690.722 259.564C687.259 253.034 683.044 246.895 677.617 242.902C672.894 239.428 664.634 235.669 660.132 241.44C656.375 246.255 656.964 252.698 657.159 258.773C657.247 261.479 657.582 263.334 655.7 264.698C654.775 265.368 653.329 265.021 652.313 265.379C650.675 265.957 649.418 266.937 648.033 268.239C638.318 277.365 633.84 293.812 632.455 308.476C630.7 327.054 636.429 342.981 641.361 359.981C642.146 362.69 644.642 368.437 644.297 371.462C643.92 374.776 640.629 374.862 638.408 374.93C631.702 375.14 624.692 374.508 618.02 373.718C602.133 371.84 586.259 362.172 572.034 353.541C569.439 351.966 565.767 351.065 563.649 348.585C561.657 346.254 561.132 342.517 559.413 339.843C555.194 333.281 552.507 327.681 546.294 323.717C539.968 319.681 533.513 315.95 527.34 311.529C519.708 306.06 512.656 299.131 505.341 293.007C491.748 281.628 478.246 269.154 463.835 259.478C457.138 254.981 449.654 254.253 442.702 250.572C435.931 246.986 427.62 246.982 420.554 249.245C417.113 250.349 414.771 252.964 411.605 254.671C407.895 256.671 404.869 254.464 401.605 252.076C396.618 248.428 391.674 242.484 398.776 238.548C401.185 237.213 404.204 236.707 406.309 234.607C408.553 232.371 410.353 228.243 412.178 225.441C416.233 219.212 418.655 212.041 424.591 208.167C431.155 203.883 438.936 202.718 445.934 199.918C453.518 196.885 460.943 193.279 468.384 189.738C481.792 183.359 495.732 176.472 505.367 162.43C513.677 150.315 517.298 134.677 516.963 118.795C516.277 86.3258 502.517 53.374 482.774 33.0735C458.565 8.1805 427.767 -0.120247 397.187 0.314798C382.835 0.519525 365.708 2.89366 353.733 13.9152C343.389 23.435 341.669 40.0854 343.207 55.1153C343.832 61.2153 345.966 69.2648 342.562 74.64C340.658 77.6469 337.238 78.3914 334.673 80.2665C331.448 82.622 328.605 84.8799 324.953 86.1257C309.441 91.4207 293.102 89.5769 277.242 89.2838C250.821 88.7953 223.739 97.837 204.029 121.369C188.113 140.37 183.34 176.201 202.752 194.725C218.436 209.69 243.037 208.044 261.529 205.434C267.264 204.623 271.207 203.446 271.22 212.314C271.235 222.002 269.966 232.126 271.921 241.637C275.001 256.614 286.387 256.972 296.453 253.746C301.765 252.044 306.9 249.485 311.944 246.805C319.343 242.874 326.124 237.094 333.431 233.171C338.384 230.512 342.093 239.111 346.487 233.15C347.299 232.048 347.448 230.406 348.673 229.842C350.592 228.959 353.811 232.055 355.494 233.035C358.014 234.502 360.555 235.58 361.561 239.111C362.504 242.415 362.091 247.668 361.188 250.927C359.228 258.011 353.949 256.611 349.129 256.138C340.723 255.31 332.373 253.558 323.97 252.821C316.431 252.16 309.371 255.008 302.867 259.707C289.209 269.577 278.035 285.276 266.192 298.187C260.097 304.831 254.205 312.008 247.577 317.794C244.696 320.31 241.574 322.623 239.069 325.749C236.584 328.851 236.311 331.67 235.461 335.797C233.947 343.145 226.429 346.737 221.729 350.614C215.083 356.097 208.038 359.964 200.588 363.328C184.81 370.452 168.909 375.426 152.414 379.103C144.338 380.904 136.329 382.087 128.174 383.059C121.145 383.896 113.671 386.632 106.65 384.447C108.672 380.301 112.255 377.812 115.046 374.607C118.643 370.476 121.703 365.582 124.426 360.51C129.726 350.634 133.443 340.037 134.297 328.058C135.066 317.278 134.184 304.381 129.037 295.274C127.26 292.128 123.743 291.271 122.152 288.438C120.57 285.621 121.173 280.771 120.307 277.486C118.102 269.132 111.558 258.779 105.8 253.927C99.5522 248.662 90.4128 246.727 83.1954 249.471C69.8251 254.554 61.6123 272.615 55.4942 287.212C52.1521 278.322 57.749 265.135 51.22 257.856C45.7133 251.715 41.3426 263.61 39.5005 268.699C30.8548 292.588 28.8914 317.926 25.2689 343.486C23.7927 341.647 24.5492 336.927 24.688 334.733C24.9463 330.649 24.9224 326.643 24.9289 322.541C24.9463 312.18 26.4703 301.772 25.7717 291.42C25.3682 285.437 23.8589 272.819 16.9807 274.807C11.1476 276.494 7.49392 286.862 5.66108 293.2C3.01753 302.343 2.4072 311.394 2.57173 321.052C2.75373 331.724 1.14517 342.221 0.755437 352.877C-0.00196397 373.576 0.746246 394.097 5.44507 414.074C13.1395 446.787 30.8309 473.968 54.4427 490.381C67.4518 499.425 81.8838 505.147 96.722 506.378C104.763 507.044 112.525 505.835 120.497 504.784C128.365 503.747 136.273 503.267 144.127 502.051C161.617 499.339 178.659 492.34 194.556 482.923C202.925 477.965 210.794 471.879 219.025 466.593C222.327 464.474 224.559 461.821 227.377 458.872C230.172 455.95 230.946 455.721 234.123 455.721C233.191 452.568 235.912 451.597 237.122 449.602C237.054 450.57 236.986 451.537 236.918 452.503C237.841 449.973 238.701 449.998 239.496 452.577C240.282 449.688 240.864 446.719 241.812 443.904C245.44 446.224 245.135 451.741 249.986 447.713C253.982 444.398 257.656 440.487 261.729 437.238C271.007 429.836 279.007 420.204 288.311 412.886C288.311 420.013 288.709 427.202 287.956 434.293C287.239 441.035 285.247 447.337 283.663 453.792C280.742 465.701 280.54 478.428 277.303 490.217C275.964 495.099 272.476 499.182 271.476 503.935C270.456 508.783 272.811 512.669 268.863 515.852C266.08 518.096 262.601 519.044 259.519 520.402C254.818 522.473 250.354 525.397 245.777 527.875C224.311 539.502 203.372 551.342 183.484 566.975C164.61 581.809 145.447 597.13 128.108 614.748C113.06 630.039 97.8489 649.809 94.186 674.752C90.6316 698.946 100.102 724.915 119.118 732.883C129.005 737.026 140.183 736.513 150.48 736.692C161.56 736.886 173.3 733.511 184.194 731.068C195.698 728.489 207.005 724.453 218.542 722.15C229.612 719.94 239.765 715.001 250.654 711.957C262.251 708.715 274.146 706.956 285.807 704.04C291.057 702.726 296.201 700.79 301.465 699.574C307.228 698.243 313.055 697.744 318.762 695.982C329.832 692.562 340.431 687.05 351.549 683.868C356.547 682.437 361.47 680.522 366.47 679.185C371.074 677.954 374.661 674.683 379.275 677.369C383.002 679.54 385.976 683.261 389.504 685.853C394.079 689.216 398.903 692.227 403.674 695.12C413.259 700.934 423.2 704.952 433.221 709.316C443.749 713.901 454.087 719.13 464.993 722.158C476.174 725.261 487.58 726.126 498.838 728.581C521.894 733.609 544.755 735.865 568.159 736.048C579.989 736.142 591.817 734.369 603.619 734.579C614.067 734.765 623.151 737.742 632.705 730.72C647.97 719.502 665.677 702.604 665.302 678.06C664.961 655.83 654.411 634.591 644.516 617.057C632.499 595.765 615.365 580.771 598.573 566.083C580.676 550.43 560.573 539.615 541.763 525.951C532.143 518.964 523.271 511.446 512.826 506.48C507.839 504.111 502.975 501.363 498.047 498.811C494.082 496.758 488.356 495.624 484.963 492.217C482.845 490.092 482.642 486.873 482.083 483.713C480.844 476.719 478.898 470.087 477.012 463.342C473.37 450.319 470.95 437.055 469.385 423.396C467.893 410.375 464.581 396.834 466.296 383.601C477.578 397.395 489.171 410.654 500.714 424.082C505.039 429.114 509.285 434.252 513.634 439.254C516.898 443.009 520.981 448.587 525.531 449.701C531.343 451.125 529.22 442.999 533.21 441.74C535.649 440.971 543.004 448.803 544.933 450.35C557.154 460.157 570.687 466.372 584.129 473.048C598.225 480.047 612.721 486.265 627.888 488.027C641.898 489.657 656.224 487.565 669.745 482.741C696.669 473.133 716.482 450.336 731.022 420.786C747.591 387.113 759.647 347.667 758.671 307.471Z" fill="#26424F"/>
<path fill-rule="evenodd" clip-rule="evenodd" d="M347.167 234.063C347.162 234.073 347.121 234.183 347.121 234.183C347.172 234.139 347.187 234.099 347.167 234.063Z" fill="#26424F"/>
<path fill-rule="evenodd" clip-rule="evenodd" d="M348.466 234.498C348.366 233.425 348.148 232.375 347.813 231.347C346.922 233.133 346.125 233.898 347.296 235.79C347.685 235.359 348.075 234.929 348.466 234.498Z" fill="#26424F"/>
<path fill-rule="evenodd" clip-rule="evenodd" d="M410.553 489.776C411.55 488.435 409.806 487.929 409.144 487.911C409.21 489.35 408.646 492.798 410.203 493.465C409.829 492.163 409.947 490.933 410.553 489.776Z" fill="#26424F"/>
<path fill-rule="evenodd" clip-rule="evenodd" d="M384.253 209.182C382.539 213.364 386.324 214.662 388.515 212.641C390.165 211.122 391.139 207.249 391.41 204.765C392.286 196.725 387.835 189.073 385.616 181.939C385.043 180.095 384.257 173.772 382.411 173.597C380.289 173.398 380.132 179.222 380.105 180.725C380.023 185.257 380.972 189.872 382.085 194.15C383.284 198.762 386.254 204.297 384.253 209.182Z" fill="#26424F"/>
<path fill-rule="evenodd" clip-rule="evenodd" d="M392.402 192.407C398.988 199.82 404.257 187.474 403.797 180.171C403.683 178.361 402.716 171.69 400.001 174.118C398.637 175.338 399.8 179.301 399.149 181.041C395.999 189.479 392.966 176.392 390.845 175.364C388.264 174.112 388.004 178.399 388.008 180.69C388.014 185.238 389.726 189.395 392.402 192.407Z" fill="#26424F"/>
<path fill-rule="evenodd" clip-rule="evenodd" d="M368.494 193.559C370.046 190.471 371.953 186.329 372.164 182.63C372.491 176.88 369.841 177.36 367.658 181.372C366.117 184.206 364.961 189.013 361.559 187.818C357.359 186.345 358.642 179.206 356.291 175.814C350.354 185.894 361.59 207.298 368.494 193.559Z" fill="#26424F"/>
<path fill-rule="evenodd" clip-rule="evenodd" d="M377.393 224.408C379.85 225.079 386.252 224.831 384.034 220.079C381.236 214.091 371.932 222.915 377.393 224.408Z" fill="#26424F"/>
<path fill-rule="evenodd" clip-rule="evenodd" d="M463.428 45.8658C463.877 44.1737 463.26 43.8664 462.188 42.5338C461.173 43.718 462.473 44.9638 463.428 45.8658Z" fill="#26424F"/>
<path fill-rule="evenodd" clip-rule="evenodd" d="M509.235 352.353C510.855 352.679 511.377 351.596 510.798 349.103C508.242 348.894 507.721 349.977 509.235 352.353Z" fill="#26424F"/>
<path fill-rule="evenodd" clip-rule="evenodd" d="M420.763 90.9033C422.55 91.9361 421.865 94.0549 421.835 95.8457C422.755 94.5813 424.615 92.2697 423.858 90.4534C422.691 87.653 419.643 90.2572 420.763 90.9033Z" fill="#26424F"/>
<path fill-rule="evenodd" clip-rule="evenodd" d="M359.889 55.656C359.617 54.9842 359.345 54.3123 359.072 53.6405C357.962 54.7662 356.249 57.743 358.013 59.1938C358.736 58.0847 359.361 56.9054 359.889 55.656Z" fill="#26424F"/>
<path fill-rule="evenodd" clip-rule="evenodd" d="M381.332 75.4138C383.555 77.6178 382.489 70.853 382.422 70.3005C382.091 71.094 380.209 74.3004 381.332 75.4138Z" fill="#26424F"/>
<path fill-rule="evenodd" clip-rule="evenodd" d="M380.1 71.9784C379.93 71.4195 379.759 70.8606 379.589 70.3005C378.688 71.3552 377.584 73.5091 379.073 74.7431C379.481 73.8788 379.823 72.9577 380.1 71.9784Z" fill="#26424F"/>
<path fill-rule="evenodd" clip-rule="evenodd" d="M394.221 95.2091C394.403 95.421 394.585 95.6328 394.766 95.8458C395.499 93.9758 394.665 92.571 393.28 92.5138C393.378 93.5637 393.692 94.4621 394.221 95.2091Z" fill="#26424F"/>
<path fill-rule="evenodd" clip-rule="evenodd" d="M334.64 305.577C335.522 304.818 336.323 303.953 337.043 302.981C334.433 300.964 335.997 305.335 332.855 302.651C332.177 303.834 333.283 306.481 334.64 305.577Z" fill="#26424F"/>
<path fill-rule="evenodd" clip-rule="evenodd" d="M444.335 489.022C445.328 487.096 445.507 487.151 444.151 485.69C443.02 488.07 443.137 487.458 444.335 489.022Z" fill="#26424F"/>
<path fill-rule="evenodd" clip-rule="evenodd" d="M236.871 182.563C237.411 183.275 237.952 183.988 238.492 184.699C238.744 183.767 240.12 181.133 239.186 180.256C238.415 181.025 237.642 181.794 236.871 182.563Z" fill="#26424F"/>
<path fill-rule="evenodd" clip-rule="evenodd" d="M256.091 189.611C255.229 189.428 253.165 188.633 252.688 189.647C253.95 190.954 256.798 189.76 256.091 189.611Z" fill="#26424F"/>
</svg>
