<svg width="796" height="814" viewBox="0 0 796 814" fill="none" xmlns="http://www.w3.org/2000/svg">
<path fill-rule="evenodd" clip-rule="evenodd" d="M212.365 348.292C215.112 382.957 217.86 417.623 220.607 452.288C235.564 441.623 250.522 430.955 265.478 420.29V499.263V520.021C265.478 521.857 264.606 528.167 265.478 529.758C266.218 531.106 271.699 531.145 272.995 531.372C281.452 532.852 289.929 534.169 298.418 535.34C320.791 538.428 344.738 542.852 367.197 539.304C386.719 536.219 405.645 527.542 423.482 517.444C429.744 513.899 435.919 510.105 441.978 506.05C443.263 505.191 447.927 503.161 448.626 501.411C449.196 499.982 447.857 494.959 447.679 493.456C446.925 487.123 446.171 480.788 445.418 474.454L434.891 386.005L454.777 410.821C456.334 412.765 459.292 418.285 461.448 419.147C463.028 419.779 466.942 417.823 468.505 417.447C479.764 414.735 491.024 412.024 502.284 409.313C504.906 408.681 510.818 408.705 513.03 406.724C514.22 405.657 514.276 403.487 514.697 401.43C517.443 387.983 520.189 374.538 522.936 361.093C523.43 358.671 526.19 351.035 525.489 348.596C525.237 347.722 524.019 347.124 523.273 346.554C506.28 333.583 489.285 320.611 472.291 307.639C462.982 300.533 453.672 293.427 444.363 286.321C440.464 283.344 435.673 277.98 431.255 276.315C428.512 275.281 424.521 276.056 421.683 275.954C415.914 275.749 410.147 275.543 404.379 275.337C403.476 275.305 400.313 274.501 399.553 275.166C398.92 275.719 399.182 276.49 398.975 277.809C398.468 281.029 398.464 284.502 398.214 287.772C398.013 290.396 398.412 295.207 397.466 297.582C396.861 299.1 397.628 298.495 396.81 299.229C395.837 300.102 392.729 299.821 391.57 299.989C385.918 300.809 380.265 301.63 374.613 302.45C367.894 303.425 361.099 305.256 354.347 304.413C344.112 303.136 333.076 303.199 323.026 300.504C320.414 299.804 319.473 297.965 317.458 295.451C313.526 290.543 309.633 285.579 305.658 280.723C303.709 278.344 304.543 278.747 302.535 279.65C300.018 280.78 297.464 283.509 295.186 285.244C286.456 291.89 277.727 298.535 268.997 305.181L215.7 345.753C214.589 346.6 213.477 347.445 212.365 348.292Z" fill="#FF7913"/>
<path fill-rule="evenodd" clip-rule="evenodd" d="M722.132 352.601C711.146 404.728 689.049 461.567 644.533 478.181C633.71 482.221 623.18 485.27 611.939 483.732C610.869 483.586 609.974 483.773 608.956 483.798C607.133 483.841 608.708 484.66 606.663 483.871C605.068 483.256 603.576 481.717 601.915 481.036C597.497 479.23 592.788 478.881 588.299 477.422C577.268 473.835 565.9 469.408 555.211 464.462C550.178 462.133 545.552 458.89 540.818 455.771C536.006 452.601 530.906 450.632 526.04 447.724C522.194 445.426 515.605 442.43 512.901 438.119C510.018 433.521 514.007 423.733 515.147 418.845C519.024 402.213 523.642 385.825 526.556 368.862C536.618 383.436 550.584 392.462 565.042 398.283C572.887 401.441 580.957 403.725 589.116 405.154C596.524 406.451 604.516 408.021 611.942 406.179C617.548 404.789 624.584 401.568 628.588 396.221C630.017 394.312 631.731 390.813 630.93 388.04C629.914 384.52 626.953 386.177 625.351 383.55C623.955 381.261 624.174 375.91 623.729 373.124C622.942 368.192 621.861 363.396 620.541 358.649C617.98 349.432 614.788 340.195 614.023 330.387C613.359 321.878 614.909 313.832 618.306 306.449C619.91 302.958 623.941 293.463 627.875 293.857C632.195 294.29 626.369 317.043 626.179 321.685C625.424 340.084 627.399 359.689 634.954 375.816C637.846 381.991 642.029 389.181 648.205 389.946C654.747 390.755 660.024 384.323 663.137 377.814C670.735 361.936 666.905 340.148 663.057 323.506C658.337 303.088 646.017 289.014 638.227 270.677C649.858 272.138 656.085 281.371 662.054 293.085C668.625 305.982 673.741 321.466 676.263 336.472C677.537 344.053 676.658 351.667 676.666 359.322C676.669 361.866 676.668 371.25 679.986 370.88C683.532 370.485 684.748 359.902 685.27 356.674C686.466 349.269 687.759 341.862 688.797 334.421C690.635 321.254 691.451 307.769 693.651 294.694C694.023 292.484 694.763 286.351 697.411 288.007C699.452 289.282 699.125 298.767 699.2 300.971C699.383 306.404 699.641 311.836 699.676 317.275C699.728 325.335 698.442 333.678 699.072 341.688C699.484 346.923 701.732 352.707 704.519 345.647C707.282 338.647 707.846 329.916 709.386 322.387C711.006 314.483 712.677 306.461 716.112 299.441C717.065 297.493 718.089 294.401 720.207 295.317C721.745 295.984 722.881 300.542 723.357 302.151C725.503 309.421 725.139 317.504 725.004 325.115C724.838 334.44 724.037 343.56 722.132 352.601ZM507.897 366.129C507.311 365.891 504.817 365.596 504.198 365.528C503.473 365.449 504.296 363.78 502.541 364.255C502.88 365.304 503.481 366.004 504.347 366.355C501.708 367.471 499.763 364.716 497.958 364.361C496.233 364.022 496.16 364.361 494.456 366.639C492.611 363.827 492.957 365.581 491.439 365.582C490.887 365.583 490.863 366.626 489.965 366.501C489.18 366.391 489.098 364.904 488.634 364.729C486.116 363.776 483.526 368.568 480.67 364.412C479.978 368.736 472.051 363.319 469 364.08C465.803 364.874 467.183 366.307 464.599 363.859C462.137 361.526 462.823 363.075 459.96 364.984C460.026 364.94 458.343 366.361 458.5 366.384C456.517 366.094 456.63 363.532 454.119 363.669C451.462 363.813 450.327 366.416 447.895 363.213C447.366 365.612 447.257 364.578 446.011 365.183C445.325 365.386 444.726 365.161 444.211 364.508C444.056 365.168 443.714 365.572 443.184 365.721C441.826 365.873 439.278 366.109 438.045 365.293C436.196 364.066 437.683 363.595 436.4 362.216C435.825 366.019 434.565 365.21 431.907 365.565C429.879 365.836 429.433 365.059 427.496 364.681C425.589 364.309 423.124 365.234 421.263 365.628C420.495 365.792 419.466 366.461 418.685 366.226C417.98 366.014 417.678 365.33 417.257 365.152C416.746 364.936 416.855 364.377 415.972 364.107C415.363 363.922 414.273 364.635 413.664 364.759C409.327 365.638 405.161 365.648 401.023 363.515C403.061 367.991 396.26 365.574 395.047 363.721C393.531 366.689 391.698 364.594 388.643 364.825C385.701 365.049 381.277 366.174 380.084 361.596C379.851 362.526 378.181 365.227 377.517 365.639C375.589 366.834 375.359 365.067 373.566 364.348C371.126 363.367 371.635 365.227 370.122 365.605C367.567 366.244 366.187 363.996 363.929 362.802C363.834 364.659 363.784 365.802 362.499 366.959C361.361 361.779 357.299 367.383 357.996 360.46C356.45 361.717 354.276 362.684 353.835 365.227C356.42 364.339 354.111 366.45 354.003 366.52C353.662 366.743 352.507 364.719 352.239 364.434C352.166 365.389 352.094 366.344 352.02 367.299C350.991 366.655 350.024 365.503 349.189 364.926C348.435 364.406 349.514 363.324 348.242 363.249C347.571 363.209 346.872 365.025 346.168 365.179C345.092 365.415 345.609 363.485 345.159 363.551C344.472 363.649 343.355 364.903 342.836 364.879C341.134 364.8 342.286 363.811 340.988 363.357C338.668 362.545 338.817 364.442 337.149 365.125C333.333 366.691 333.717 359.487 329.835 364.292C328.906 365.441 328.309 367.216 327.036 367.117C324.401 366.911 325.327 363.008 325.862 361.096C326.416 361.438 316.236 367.972 316.317 367.717C316.381 366.149 317.982 364.941 316.551 363.549C315.382 366.686 314.15 366.741 311.452 367.325C310.141 367.609 309.883 367.988 308.48 367.307C307.585 366.874 306.985 365.092 306.096 364.994C306.216 365.007 304.584 366.559 304.335 366.699C302.863 367.528 301.931 366.588 300.5 366.929C299.28 367.22 298.8 368.516 297.586 368.161C295.966 367.688 296.918 365.271 294.689 365.945C293.927 366.175 293.469 368.01 292.268 368.389C290.398 368.981 288.104 367.877 286.127 368.453C284.557 368.911 283.392 369.105 282.019 369.2C280.911 369.278 281.367 368.2 279.326 369.473L278.46 366.746C277.438 367.894 276.416 369.042 275.395 370.191C275.2 369.161 275.078 368.119 275.026 367.063C273.502 368.971 271.582 369.296 269.534 369.468C267.315 369.654 265.663 370.258 263.504 370.766C262.822 370.925 261.064 371.18 260.503 370.882C260.586 370.926 259.453 370.337 259.795 370.449C259.647 370.075 259.511 369.695 259.385 369.308C259.194 368.231 258.575 368.184 257.529 369.166C256.987 369.061 255.937 368.174 255.397 368.393C254.005 368.956 254.194 370.306 252.807 370.108C251.907 369.979 251.448 368.317 250.51 368.204C249.076 368.032 247.833 370.038 246.541 370.476C250.47 369.143 241.445 370.177 244.251 370.268C242.411 370.209 240.501 370.094 238.8 371.125C237.861 370.322 239.002 368.709 238.053 368.044C237.191 367.442 237.125 369.033 237.025 369.068C237.568 368.876 237.297 370.23 236.753 370.47C235.06 371.22 233.705 369.313 233.617 367.421C232.178 370.128 231.775 369.04 229.659 369.207C227.572 369.372 225.773 370.739 223.685 370.714C219.556 370.665 216.754 368.871 215.376 364.264C219.776 364.934 224.204 361.399 228.506 362.231C229.92 362.505 230.803 363.832 232.041 363.596C233.568 363.307 234.633 361.226 236.59 361.001C240.906 360.508 245.161 360.989 249.507 360.162C254.699 359.174 260.116 358.588 265.357 359.069C269.407 359.442 272.686 357.506 276.793 357.134C282.103 356.651 287.458 356.565 292.777 356.217C298.242 355.858 304.124 354.768 309.574 355.117C311.276 355.226 312.74 355.434 314.429 355.307C315.143 355.253 315.819 354.648 316.569 354.738C317.544 354.856 317.963 356.104 318.976 356.061C320.696 355.988 322.535 354.216 324.58 354.168C327.943 354.089 331.291 354.098 334.662 353.859C337.63 353.648 340.809 352.782 343.764 352.829C345.848 352.861 346.362 355.081 347.577 355.31C349.761 355.721 360.808 347.865 361.763 354.916C367.514 349.997 375.227 354.162 381.628 353.238C389.853 352.05 398.228 353.108 406.507 352.686C414.932 352.255 423.6 352.654 431.992 353.647C435.468 354.058 438.826 354.444 442.312 354.194C443.865 354.083 445.662 353.587 447.216 354.035C447.592 354.144 450.475 356.658 450.117 356.73C451.691 354.964 450.626 354.705 453.395 354.614C455.53 354.545 457.549 355.121 459.671 355.278C463.481 355.559 467.32 354.9 471.122 355.045C474.296 355.166 477.4 355.752 480.59 355.78C484.03 355.811 488.092 355.933 490.581 359.398C490.318 358.31 490.056 357.222 489.793 356.134C493.632 356.51 497.426 358.222 501.307 357.421C500.325 358.596 499.329 359.557 498.953 361.281C501.047 360.949 502.463 359.123 504.667 359.108C506.518 359.095 506.903 360.255 508.857 358.756C509.098 360.593 509.338 362.429 509.579 364.265C512.285 363.469 510.51 360.948 510.707 358.674C512.907 359.5 514.769 358.552 513.902 362.506C513.233 365.555 510.188 367.057 507.897 366.129ZM504.094 400.088C503.151 403.401 494.989 401.508 493.058 401.157C490.564 400.706 487.711 399.99 485.415 399.635C485.139 399.176 484.809 398.787 484.424 398.466C484.135 398.969 483.77 399.326 483.328 399.536C482.274 399.824 482.27 401.185 480.884 400.884C480.82 402.897 481.939 401.753 482.796 402.483C480.636 404.293 481.624 402.21 480.412 402.243C480.112 401.71 479.694 401.502 479.157 401.617C478.474 401.838 477.845 402.203 477.269 402.713C476.729 403.425 476.267 403.462 475.881 402.824C475.513 402.36 475.062 402.074 474.53 401.965C472.402 402.398 471.808 403.577 469.411 403.385C465.987 403.109 462.283 404.237 458.913 403.642C456.825 403.275 453.335 399.174 452.387 403.172C450.942 400.208 448.642 398.191 447.26 395.163C453.7 394.698 460.138 394.144 466.584 393.853C472.228 393.599 478.401 394.393 483.675 394.06C488.616 393.749 493.847 393.066 498.891 392.503C504.238 391.906 506.007 393.372 504.094 400.088ZM336.079 400.577C338.418 401.385 340.645 399.552 342.913 400.131C343.662 400.322 345.215 402.029 345.556 402.062C346.18 402.125 348.016 400.45 348.803 400.225C353.785 398.809 359.819 398.96 364.799 399.83C367.439 400.29 367.844 398.781 370.147 398.048C372.542 397.285 375.945 397.873 378.466 397.662C384.397 397.166 390.326 397.519 396.217 396.977C402.265 396.421 408.283 396.12 414.334 395.73C418.455 395.466 428.36 392.527 431.776 396.351C434.593 399.504 430.964 404.978 428.146 406.227C426.039 407.159 425.029 405.194 423.465 405.382C421.684 405.595 422.305 408.226 420.715 405.786C419.73 408.212 413.537 407.178 411.763 407.338C407.896 407.687 404.624 408.657 401.991 404.149C402.17 405.448 402.348 406.749 402.527 408.049C399.036 405.718 395.29 406.464 392.259 407.277C390.759 407.679 386.153 410.46 384.528 409.261C383.409 408.436 385.381 407.025 383.494 406.321C382.504 405.952 380.797 408.005 379.589 407.902C376.245 407.614 377.194 404.804 373.909 408.38C372.796 407.178 372.426 405.134 372.573 403.38C370.187 405.924 370.386 410.163 366.12 409.387C364.53 409.098 364.238 407.071 363.409 406.698C361.644 405.901 361.443 407.334 359.914 408.467C359.336 408.894 358.632 409.583 357.952 409.669C356.556 409.843 356.334 409.041 356.143 409.067C355.214 409.196 354.043 409.785 352.94 409.364C351.951 408.985 351.662 406.803 349.918 407.313C348.25 407.802 348.236 409.219 348.539 411.338C346.893 411.125 345.898 409.98 344.667 408.74C343.424 412.362 340.808 409.362 339.361 412.418C337.476 409.606 336.267 410.38 333.928 407.632C334.044 408.779 334.158 409.925 334.273 411.072C332.448 410.632 331.636 409.024 330.079 411.152C328.568 407.634 323.986 412.646 321.633 409.248C320.584 413.552 313.643 412.522 310.712 412.597C308.114 412.663 306.191 412.398 303.653 413.151C301.41 413.818 298.302 414.508 296.192 414.204C294.814 414.004 293.307 413.688 291.59 413.922C289.114 414.258 286.976 415.859 284.412 415.102C280.55 413.961 278.183 407.622 282.484 404.838C285.428 402.932 290.73 403.638 293.969 403.286C299.337 402.703 305.353 401.481 310.728 402.037C314.921 402.471 318.742 401.22 323.02 400.692C326.241 400.295 331.519 399.579 333.62 403.568C334.426 402.403 334.343 399.977 336.079 400.577ZM277.315 455.181C276.738 451.593 301.28 449.617 303.716 449.383C308.83 448.89 313.958 448.539 319.085 448.376C323.299 448.242 327.231 449.247 331.446 448.439C335.383 447.684 340.134 446.137 343.56 449.62C344.064 444.857 358.836 447.177 361.647 447.191C373.882 447.246 385.589 447.281 397.423 446.334C404.186 445.793 411.368 445.065 418.132 445.488C421.183 445.679 423.64 446.695 426.674 445.813C428.653 445.238 430.785 444.041 432.678 445.733C434.893 447.714 435.839 454.439 434.314 457.246C433.203 459.291 432.219 459.064 430.443 458.71C427.714 458.168 425.686 457.378 422.902 458.765C423.353 458.54 421.038 459.186 421.23 459.167C418.077 459.462 413.753 462.214 411.037 459.041C412.125 459.28 413.707 456.852 412.335 456.651C411.304 456.502 410.651 457.882 409.846 458.345C407.096 459.927 405.688 459.432 404.045 456.114C400.733 459.698 400.376 458.706 398.921 454.293C397.802 455.371 397.561 457.92 396.68 458.756C396.549 458.881 397.091 460.429 396.455 460.365C395.864 460.306 395.671 459.096 395.217 459.001C394.927 458.939 394.776 457.879 394.499 457.815C394.198 457.745 393.888 458.422 393.548 458.402C392.637 458.348 390.034 460.769 390.968 457.372C389.588 459.565 388.995 458.166 388.497 456.171C386.905 457.684 385.313 459.197 383.72 460.709C382.979 458.137 381.705 458.837 380.102 459.735C380.585 457.949 380.282 456.258 379.07 457.501C378.368 458.22 377.897 460.504 377.178 461.474C374.271 457.794 373.214 458.803 369.197 459.282C367.664 459.464 365.759 459.818 364.389 458.66C363.185 457.643 362.504 453.91 360.445 456.926C360.903 456.255 360.185 461.407 360.057 462.226C359.149 461.461 358.378 460.52 357.743 459.404C356.557 462.336 353.446 459.706 350.897 460.305C346.884 461.248 342.744 462.837 339.199 459.104C338.949 460.309 336.045 461.844 336.041 461.891C336.213 459.757 337.29 460.507 335.09 460.102C334.685 460.027 334.226 460.938 333.843 461.037C332.532 461.376 331 461.055 329.678 461.008C324.179 460.81 319.145 462.333 313.715 462.885C311.884 463.07 309.713 463.436 307.994 462.573C306.224 461.683 306.273 460.674 304.482 461.247C305.048 461.066 303.362 463.28 303.454 463.196C303.213 463.415 302.208 462.335 301.851 462.416C301.747 462.888 301.643 463.36 301.539 463.832C301.107 463.765 300.675 463.699 300.244 463.633C299.063 463.831 297.998 462.337 296.889 462.287C297.093 462.296 293.895 463.784 294.04 463.874C291.808 462.483 292.449 462.886 289.617 463.733C286.94 464.534 284.274 464.347 281.528 464.846C273.538 466.296 278.299 461.293 277.315 455.181ZM270.259 505.099C268.757 502.436 272.754 501.515 274.031 501.28C276.13 500.893 278.916 501.663 280.315 501.246C282.446 500.613 284.502 499.101 286.901 498.691C289.928 498.173 292.979 498.09 296.019 497.766C297.031 497.657 298.285 497.222 299.27 497.295C300.737 497.405 301.347 498.375 302.531 498.382C304.548 498.395 307.038 496.803 309.106 496.511C311.753 496.135 314.428 495.96 317.088 495.795C322.694 495.447 328.243 495.591 333.846 495.583C336.401 495.578 343.207 492.264 344.481 495.98C346.253 493.164 350.798 493.548 353.331 493.467C357.793 493.323 362.209 492.785 366.667 492.526C370.485 492.304 374.751 493.326 378.5 492.61C380.566 492.216 381.25 491.389 383.593 491.763C385.334 492.039 387.988 490.889 389.482 491.397C389.404 491.371 391.347 492.875 390.741 492.923C391.408 492.869 391.369 493.452 392.104 493.192C393.071 492.852 392.627 491.333 394.63 490.794C397.754 489.952 401.919 490.927 405.164 490.71C408.313 490.501 411.456 490.41 414.608 490.428C416.059 490.436 417.853 490.003 419.264 490.357C419.956 490.53 421.426 491.658 422.012 491.545C423.673 491.221 424.519 489.779 426.764 489.868C429.309 489.969 431.6 489.926 434.131 489.683C436.581 489.449 436.974 489.012 438.189 491.56C439.393 494.087 439.725 497.379 437.509 499.097C438.949 498.979 440.719 501.387 439.023 502.72C437.975 503.545 435.873 501.685 434.619 501.819C433.073 501.985 431.859 503.006 430.177 503.069C428.408 503.137 426.612 503.693 424.867 503.736C423.051 503.78 421.677 502.766 419.953 503.198C418.437 503.579 418.276 505.132 416.451 503.768C415.544 503.089 415.39 500.576 414.152 500.553C412.493 500.521 413.155 503.2 412.201 504.44C411.945 500.611 409.579 506.948 408.638 502.299C407.771 503.842 404.56 506.002 403.005 504.762C401.588 503.632 402.058 501.073 401.468 499.231C400.485 502.542 397.847 505.979 398.086 499.949C396.804 501.919 393.342 501.608 394.21 505.057C393.166 505.032 392.919 503.17 392.04 503.029C391.283 502.908 390.68 503.636 390.564 503.625C390.98 503.668 389.322 504.358 389.296 504.365C390.419 504.079 386.059 503.594 386.801 503.602C385.79 503.592 384.552 504.627 383.369 504.623C382.292 504.62 381.22 504.09 380.157 503.939C377.399 503.545 377.973 504.302 376.242 505.384C375.6 505.785 375.439 506.464 374.529 506.379C373.857 506.316 373.605 505.22 373.529 505.211C372.585 505.092 373.282 504.695 371.815 504.879C371.647 505.241 371.479 505.601 371.311 505.963C370.781 506.811 370.093 507.023 369.249 506.6C367.078 507.182 359.877 509.705 360.583 505.033C359.479 505.707 358.376 506.381 357.272 507.056C356.799 503.289 350.804 508.283 349.465 508.535C347.747 508.857 347.589 508.034 345.964 507.595C345.671 507.516 345.085 508.723 344.398 508.55C342.616 508.103 342.299 507.88 341.993 505.462C340.722 508.43 339.666 507.103 337.362 507.591C336.852 507.699 336.526 508.953 335.794 508.737C335.267 508.581 335.252 507.376 334.889 507.221C334.561 507.08 334.61 506.129 334.128 505.994C333.575 505.838 331.69 507.77 331.149 508.068C329.929 508.74 327.925 509.852 326.734 509.519C325.262 509.108 325.917 507.744 323.837 507.898C320.555 508.138 319.185 511.629 317.143 506.128C316.222 508.332 316.339 508.929 314.859 509.657C313.765 510.194 310.995 509.633 309.555 509.566C303.404 509.282 297.357 511.901 291.258 511.215C288.577 510.914 286.316 510.244 283.611 510.792C280.768 511.369 277.987 512.216 275.103 512.557C273.637 512.73 270.573 513.257 269.854 510.914C269.22 508.852 271.582 507.445 270.259 505.099ZM282.321 589.666C274.344 596.336 267.736 605.444 260.412 613.156C253.068 620.888 247.24 629.483 240.635 638.046C234.529 645.961 228.919 653.449 221.537 659.43C216.865 663.216 212.698 667.874 207.899 671.444C204.305 674.117 198.86 677.633 200.614 669.457C202.411 661.078 205.729 652.609 208.61 644.783C212.706 633.66 216.834 622.639 221.266 611.727C222.932 607.627 223.863 603.545 226.505 600.279C229.379 596.724 231.391 592.084 234.539 588.725C247.778 574.599 267.731 585.512 282.321 589.666ZM307.346 594.456C303.727 596.826 299.677 597.414 295.842 598.981C292.574 600.317 289.535 602.692 286.021 602.868C289.22 599.866 291.969 595.786 295.576 593.507C299.633 590.943 303.316 592.81 307.346 594.456ZM466.18 614.212C452.869 608.599 440.476 600.328 427.512 593.672C425.274 592.522 407.771 585.319 408.126 581.89C420.392 579.082 433.023 574.263 445.318 579.517C456.503 584.297 465.6 595.762 474.259 605.358C476.518 607.861 490.489 619.263 489.239 622.895C488.373 625.412 481.641 624.725 480.051 624.21C477.998 623.542 476.815 621.984 475.204 620.272C472.511 617.413 469.532 615.625 466.18 614.212ZM441.607 520.437C443.629 518.112 444.839 514.584 446.771 512.438C449.252 509.681 453.256 511.024 455.968 512.457C464.107 516.755 471.064 523.981 479.154 528.466C488.118 533.436 495.878 540.078 503.964 546.923C511.354 553.18 519.346 558.359 526.889 564.331C534.576 570.416 543.182 574.372 550.974 580.241C558.905 586.216 566.805 592.214 574.426 598.797C588.016 610.537 602.166 622.591 612.22 639.282C617.388 647.861 622.225 657.591 626.017 667.225C629.464 675.983 633.203 688.139 628.736 697.249C624.446 705.998 617.134 712.89 610.945 719.417C608.601 721.889 606.372 724.891 603.334 725.963C599.639 727.266 595.327 726.906 591.527 727.291C571.208 729.35 552.279 727.406 532.254 722.864C512.947 718.486 493.559 716.034 474.103 712.99C463.127 711.274 452.153 709.274 441.327 706.414C436.698 705.193 431.989 703.783 427.46 702.118C423.505 700.663 420.179 697.461 416.113 696.192C398.855 690.806 379.108 688.747 362.022 679.687C377.142 671.835 393.21 667.091 408.706 660.566C425.016 653.698 440.946 647.935 458.137 645.984C466.983 644.979 474.9 642.156 483.409 639.201C491.519 636.385 499.985 635.522 508.315 634.26C512.019 633.699 522.59 634.539 523.818 628.488C525.645 619.479 515.259 618.439 510.831 619.246C504.549 620.39 499.37 622.35 494.563 615.91C489.654 609.333 484.885 602.6 479.888 596.107C470.621 584.067 461.071 570.143 447.972 564.741C431.993 558.151 413.462 564.406 397.518 568.153C380.677 572.111 363.864 575.901 347.339 581.654C340.495 584.036 331.67 589.285 324.568 588.442C317.568 587.609 309.64 586.178 302.876 583.655C299.816 582.514 297.3 580.399 294.561 578.427C291 575.862 287.098 574.218 283.319 572.224C275.676 568.193 268.226 564.481 259.981 562.896C253.038 561.561 245.665 560.77 238.936 563.812C232.335 566.796 226.486 572.873 221.88 579.364C216.877 586.416 212.742 594.319 208.642 602.198C206.673 605.98 204.27 609.28 202.231 612.977C200.519 616.082 199.52 619.531 197.709 622.549C193.655 629.3 190.903 637.936 188.446 645.79C185.717 654.513 182.685 664.888 183.336 674.377C183.582 677.964 183.84 682.714 184.95 686.04C186.362 690.27 188.376 690.163 191.278 691.758C196.264 694.498 197.663 702.075 204.106 700.598C210.151 699.213 215.393 692.989 219.802 688.027C225.55 681.562 231.051 674.745 236.551 667.952C242.194 660.981 247.756 653.25 252.246 645.049C254.013 641.821 255.39 638.174 257.479 635.234C260.139 631.49 263.125 631.04 266.738 629.548C298.323 616.507 330.061 603.927 362.631 595.316C370.435 593.252 378.301 590.59 385.967 587.844C394.097 584.932 398.307 588.01 405.017 593.553C419.035 605.137 435.604 613.296 451.214 620.853C456.129 623.233 463.954 623.384 467.796 628.077C445.021 632.415 423.318 640.764 401.351 649.077C390.521 653.174 379.566 656.728 368.695 660.647C357.82 664.568 347.358 669.648 336.632 674.069C325.957 678.468 314.676 680.262 303.898 684.32C292.895 688.462 281.939 691.311 270.645 693.829C259.242 696.372 247.917 699.306 236.475 701.583C231.236 702.625 225.998 703.706 220.816 705.14C215.747 706.544 210.849 709.904 205.754 710.683C183 714.162 160.694 721.914 138.029 726.296C121.106 729.567 91.6643 734.131 80.6903 712.912C69.6549 691.574 83.1935 666.682 95.2732 651.424C102.78 641.942 111.216 633.597 120.067 626.172C129.539 618.227 138.652 609.647 148.126 601.713C169.566 583.758 192.815 569.114 215.849 554.687C226.906 547.761 237.588 540.335 248.343 532.735C253.681 528.963 256.635 535.05 260.855 539.186C264.173 542.441 270.268 550.462 274.911 546.754C275.09 548.089 275.269 549.424 275.448 550.761C276.808 549.985 278.169 549.211 279.529 548.436C280.442 551.431 280.335 553.291 282.888 554.863C284.455 555.83 287.799 556.992 289.294 555.29C289.599 556.473 289.903 557.655 290.208 558.837C291.514 558.712 291.767 554.042 292.013 552.948C294.252 557.034 297.348 560.449 301.283 561.604C301.302 561.337 300.643 557.98 300.671 557.96C301.916 557.007 303.487 561.086 304.147 561.96C306.335 564.854 307.64 564.405 310.057 562.069C310.233 562.307 311.051 564.975 311.17 564.927C311.694 564.72 312.687 562.355 312.796 562.14C312.645 565.25 317.449 565.877 319.146 565.209C318.765 564.297 318.385 563.387 318.005 562.475C323.915 561.489 326.235 569.336 331.908 568.938C336.101 568.642 332.738 567.497 335.111 565.252C337.184 563.291 337.554 567.581 337.757 567.444C338.152 566.927 338.459 566.332 338.677 565.66C339.444 569.334 345.553 572.63 344.922 566.589C347.325 567.79 349.031 569.784 351.691 570.205C354.924 570.717 358.377 569.86 361.601 569.525C368.551 568.803 375.102 567.031 381.366 563.052C385.08 560.693 389.033 558.553 392.524 555.707C395.445 553.325 400.988 546.094 404.878 549.208C403.882 545.535 408.572 548.939 408.721 544.208C409.474 544.918 410.228 545.627 410.981 546.337C411.433 545.099 411.307 543.148 411.912 542.07C412.743 540.588 413.148 541.461 413.857 540.627C414.649 539.695 415.341 537.197 416.291 536.486C417.271 535.754 418.423 536.627 419.476 535.987C421.081 535.013 427.982 525.503 426.814 533.651C429.781 532.391 427.493 531.239 427.864 528.768C428.608 523.816 430.42 527.38 432.225 527.812C435.181 528.52 435.121 525.466 436.769 523.247C438.274 521.22 441.103 520.313 440.128 516.792C441.241 517.543 441.478 519.011 441.607 520.437ZM263.45 414.666C261.122 417.907 259.378 416.522 256.79 416.046C256.513 414.886 256.039 414.726 255.37 415.564C254.603 416.115 253.779 416.478 252.895 416.651C250.773 417.305 248.568 417.027 246.491 418.017C246.551 417.148 247.281 415.603 246.814 414.72C244.63 416.608 243.276 417.809 240.594 417.844C238.421 417.873 234.608 415.799 232.804 418.278C232.748 417.313 232.692 416.349 232.637 415.383C231.754 415.933 230.985 416.669 230.331 417.592C230.207 416.162 230.138 415.081 229.381 413.924C227.946 417.614 226.374 417.701 223.585 416.291C223.976 416.488 220.793 414.158 220.915 414.804C219.909 409.506 235.791 409.943 237.459 409.734C241.622 409.208 245.786 408.904 249.956 408.424C253.911 407.969 256.862 407.198 259.6 411.322C258.38 405.366 269.919 405.661 263.45 414.666ZM81.3584 322.294C81.7959 331.299 83.3994 340.871 80.5978 349.538C78.3453 356.504 73.8523 364.372 69.0124 368.918C59.1019 378.227 50.7016 366.836 49.3223 354.318C47.8844 341.261 50.7346 325.307 59.7307 317.256C65.106 312.446 70.3111 312.78 76.5002 314.361C77.9536 314.733 80.3132 314.59 81.1442 316.395C81.3392 316.818 81.1644 322.286 81.3584 322.294ZM212.984 442.271C211.273 443.351 209.482 443.983 207.972 445.452C207.448 445.963 207.27 447.125 206.713 447.555C205.701 448.337 204.254 447.818 203.198 448.464C201.452 449.53 200.2 451.057 198.124 452.039C195.042 453.5 192.339 455.501 189.426 457.4C184.571 460.563 179.361 463.279 174.286 465.854C171.724 467.154 164.639 469.687 164.885 474.375C164.312 474.568 163.726 473.002 162.53 473.126C160.887 473.297 158.717 475.671 157.011 476.255C153.822 477.346 151.352 477.443 151.352 482.525C150.337 481.663 150.079 479.553 148.728 479.274C147.208 478.959 146.568 481.009 145.352 481.647C143.919 482.398 142.138 481.678 140.72 482.477C140.099 483.297 139.41 484.013 138.651 484.623C137.88 484.734 137.112 484.706 136.348 484.534C133.336 485.332 130.565 486.748 127.546 487.483C124.605 488.201 122.59 488.462 123.827 492.809C120.68 493.579 119.911 489.406 116.361 490.932C112.009 492.801 107.941 494.15 103.398 495.291C101.081 495.873 98.6606 497.171 96.3266 497.476C94.6618 497.694 93.1076 496.949 91.4684 497.181C89.4923 497.458 87.9044 498.602 85.8597 498.644C83.9202 498.687 81.8838 498.251 79.9791 497.824C80.2482 498.783 80.585 499.702 80.9895 500.583C79.6725 500.238 79.0647 498.259 77.9481 497.966C76.7766 497.659 75.7268 499.17 74.7511 498.835C74.3356 498.692 74.612 497.091 73.8688 496.785C73.1915 496.508 72.9059 496.836 72.2341 496.704C72.0099 496.661 69.2 496.471 68.7524 496.766C67.9699 497.285 68.7616 498.256 68.606 498.4C65.9636 500.844 65.9316 499.525 64.7537 496.972C63.0238 493.225 60.9379 495.59 57.794 494.934C54.2904 494.203 51.5299 496.135 48.0812 495.86C44.3616 495.564 39.9903 492.085 36.7017 490.054C29.6002 485.668 22.6753 481.516 16.7114 474.873C5.05277 461.886 -4.43212 445.915 -10.0244 427.63C-16.0331 407.987 -17.1717 387.501 -16.6893 366.661C-16.3992 354.128 -15.5965 341.602 -14.0159 329.216C-12.9276 320.695 -12.6997 305.554 -5.01331 301.674C-3.69167 321.624 -7.86161 341.953 -5.23206 361.773C-4.44036 367.743 -2.50915 375.698 1.14551 380.12C6.55655 386.665 7.82236 377.204 8.31203 371.977C9.22272 362.271 10.915 352.618 12.1131 342.958C13.3103 333.302 14.156 323.538 15.8209 313.983C16.4277 310.499 21.3225 284.987 24.9149 286.196C24.1882 304.755 22.2579 322.995 22.1819 341.623C22.1517 349.094 21.6163 356.986 22.4794 364.408C22.9233 368.228 25.7066 379.436 30.4935 378.501C34.9233 377.637 30.0532 369.742 29.6395 366.698C28.544 358.639 29.9407 348.612 30.9621 340.613C32.8951 325.475 37.2079 309.972 44.2572 297.321C50.5707 285.994 60.2917 275.211 72.0026 277.208C77.0063 278.062 80.9099 279.615 83.4241 285.325C85.3965 289.807 93.1671 294.898 88.664 300.509C84.5646 305.616 77.9344 301.528 73.3773 300.31C67.7978 298.819 61.8184 300.613 57.1524 304.699C49.1466 311.708 44.584 324.239 43.0948 335.991C41.0877 351.837 46.4529 393.315 66.2144 384.019C79.3421 377.843 89.2297 355.628 88.1277 338.62C87.6856 331.812 85.5558 318.887 93.093 317.049C102.749 314.694 104.113 327.997 103.135 336.641C101.714 349.216 96.3962 360.909 90.3124 370.85C85.0103 379.515 78.8433 384.933 72.4629 392.09C70.5738 394.208 65.7559 398.971 66.565 402.912C67.4519 407.23 75.0238 408.458 78.0561 409.168C93.0555 412.677 109.97 409.449 124.944 406.999C155.72 401.962 186.091 389.557 211.327 366.75C212.347 380.862 213.632 394.926 214.105 409.089C214.334 415.964 214.393 422.938 215.022 429.775C215.409 433.982 216.808 439.857 212.984 442.271ZM127.649 491.442C126.441 492.231 127.747 487.454 127.411 489.035C129.216 489.843 129.295 490.646 127.649 491.442ZM255.315 320.666C257.234 318.024 262.474 311.739 264.137 317.703C264.755 315.161 264.836 311.395 267.225 314.828C268.176 310.611 278.667 311.006 281.266 310.819C289.587 310.225 297.941 309.906 306.233 308.873C323.27 306.751 340.605 307.846 357.705 307.776C361.408 307.761 365.101 307.51 368.777 308.182C372.325 308.83 376.053 310.647 379.668 309.983C382.882 309.392 384.99 308.285 388.299 308.759C392.258 309.326 396.101 309.729 400.096 309.71C417.763 309.63 435.421 310.525 453.092 310.559C456.536 310.566 460.662 309.725 463.893 311.553C465.09 312.231 466.398 314.486 467.313 314.733C468.361 315.016 467.738 312.973 469.141 313.896C471.02 315.131 469.565 318.928 468.324 319.531C469.067 319.17 466.982 318.815 467.191 318.801C466.202 318.868 465.358 319.816 464.295 319.756C462.677 319.668 461.322 318.435 460.018 317.349C459.996 317.792 460.713 320.748 459.895 320.897C459.191 321.026 458.531 318.112 458.46 317.434C454.507 321.791 450.319 319.362 445.413 319.914C441.934 320.306 434.679 323.207 432.252 318.667C432.151 319.633 431.841 320.478 431.323 321.203C430.629 322.523 430.029 322.411 429.522 320.863C429.351 320.873 427.661 321.332 427.628 321.329C426.438 321.211 424.896 320.677 423.686 320.548C421.813 320.348 422.158 322.051 420.666 322.079C419.852 322.094 417.774 320.623 416.354 320.532C413.893 320.371 411.38 321.676 408.953 321.281C407.281 321.009 405.771 319.31 404.132 319.243C402.089 319.158 401.426 321.105 399.808 318.371C399.476 318.258 399.271 319.867 399.139 319.895C399.171 319.888 397.599 320.179 397.413 320.269C397.09 320.424 395.833 321.143 395.451 321.151C394.624 321.171 394.176 320.431 393.3 320.414C391.851 320.383 387.225 321.977 387.354 318.627C382.184 321.022 377.771 320.088 372.464 320.654C370.028 320.915 368.499 320.508 366.182 319.949C363.281 319.249 361.354 320.128 358.46 320.306C355.68 320.477 354.803 319.006 352.456 317.679C351.53 317.155 350.919 316.465 349.783 316.756C349.136 316.922 349.596 318.285 349.405 318.377C348.407 318.858 347.711 318.349 346.343 318.466C343.818 318.681 342.813 321.318 340.217 318.842C341.079 318.712 341.943 318.579 342.806 318.448C340.323 317.134 337.048 316.463 337.649 321.251C335.532 320.88 337.364 319.078 336.324 318.434C335.283 317.79 334.118 318.868 332.807 319.4C329.347 320.803 326.461 320.107 322.852 319.855C318.751 319.568 309.159 323.75 306.222 318.321C306.135 319.465 305.152 322.653 303.844 322.503C303.417 322.453 304.606 319.07 304.741 318.712C304.067 320.504 300.994 320.844 299.479 321.774C299.649 320.811 299.818 319.848 299.988 318.886C298.582 320.757 297.898 319.615 296.243 320.241C295.52 320.514 294.473 322.379 293.854 322.491C293.134 321.447 292.228 320.998 291.137 321.143C290.411 320.916 289.685 320.872 288.961 321.01C286.056 321.274 283.409 323.29 280.52 321.917C278.019 320.726 277.052 317.665 275.561 322.536C275.168 321.67 274.777 320.804 274.384 319.938C273.901 320.879 273.417 321.818 272.932 322.757C271.041 321.208 270.924 320.312 268.747 320.881C268.236 321.135 267.712 321.1 267.175 320.773C267.047 321.251 266.919 321.727 266.791 322.204C266.74 323.403 266.455 323.799 265.937 323.391C265.501 323.195 265.108 322.899 264.757 322.5C263.317 322.638 261.477 323.112 259.931 322.849C259.334 322.75 255.594 320.282 255.315 320.666ZM299.395 288.427C299.564 288.752 299.734 289.077 299.903 289.402C297.565 290.946 297.015 290.06 296.773 286.961C297.916 286.988 298.11 289.5 299.395 288.427ZM300.843 286.608C301.969 287.229 303.261 288.448 304.321 286.814C305.035 289.408 299.732 292.948 300.843 286.608ZM308.116 287.753C310.48 289.75 304.809 288.145 304.818 288.148C305.838 286.972 306.936 286.84 308.116 287.753ZM328.451 276.618C329.262 281.73 331.497 281.585 335.107 279.209C340.371 275.742 341.26 270.065 341.627 263.287C341.979 256.788 342.615 254.271 347.978 255.629C351.721 256.576 354.887 255.78 358.661 255.649C362.688 255.511 364.107 256.279 364.431 261.458C364.755 266.643 365.493 270.581 368.504 274.527C371.566 278.539 375.648 280.934 379.626 283.179C381.671 284.332 383.593 285.574 385.856 285.823C386.733 285.921 391.297 285.199 391.393 287.004C391.464 288.361 385.143 292.189 384.472 292.644C381.54 294.637 378.617 296.425 375.415 297.632C368.048 300.41 360.236 300.574 352.605 300.406C340.301 300.135 323.298 293.632 315.941 279.99C320.111 278.866 324.281 277.742 328.451 276.618ZM327.347 232.343C325.4 230.301 324.14 227.217 322.522 224.799C321.707 223.58 321.109 223.191 320.333 222.581C319.516 221.939 319.055 222.848 318.374 221.337C316.612 217.433 322.048 211.94 316.282 210.437C314.332 209.927 309.636 211.859 309.067 208.366C308.262 203.427 315.805 203.104 317.58 200.597C321.109 195.613 318.714 187.164 320.863 181.414C322.898 175.967 328.15 174.999 332.296 173.363C338.072 171.084 343.918 169.762 349.783 167.938C353.884 166.663 360.697 161.541 364.5 166.067C358.631 167.695 362.043 170.251 365.954 171.694C370.385 173.33 375.081 173.968 379.672 174.423C384.399 174.892 389.215 174.981 393.885 173.804C398.203 172.715 403.026 168.024 407.554 169.225C405.042 174.684 397.558 177.667 393.01 179.097C390.692 179.825 389.209 179.597 389.52 183.208C389.821 186.708 392.256 190.217 392.806 193.862C393.532 198.687 392.897 203.12 391.523 207.658C390.171 212.122 389.856 212.705 391.037 216.971C392.878 223.613 388.921 230.954 385.265 235.777C370.477 255.28 342.176 247.893 327.347 232.343ZM364.924 115.78C364.933 115.904 364.983 115.979 364.924 115.78V115.78ZM369.529 164.999C368.916 165.572 365.385 166.772 365.533 165.047C365.73 162.736 368.913 163.571 369.529 164.999ZM377.578 118.314C376.75 117.543 374.429 117.86 376.126 114.934C376.679 116.221 377.129 117.268 377.578 118.314ZM321.881 99.818C322.937 96.3881 324.107 93.1975 324.583 89.5465C324.876 87.2973 324.293 84.7286 326.809 84.3759C323.602 82.6282 323.569 75.7306 323.38 72.1552C323.12 67.2308 321.875 60.6377 323.607 56.0546C325.384 51.3466 327.782 51.4244 328.506 57.0314C328.79 59.2268 327.706 59.9369 327.501 61.4657C327.099 64.4903 327.9 63.8272 329.462 61.523C330.106 63.865 330.353 67.3842 332.977 67.2354C332.802 66.602 331.797 65.2049 332.133 64.4181C332.648 63.2099 335.168 65.056 335.487 65.3354C337.788 67.3464 338.287 69.1822 336.646 71.7189C338.918 72.0247 337.011 74.5098 338.477 75.158C340.714 76.1463 339.214 71.4635 338.972 70.6401C340.333 71.3043 340.79 72.0625 341.652 73.4069C342.159 74.3346 342.62 75.2977 343.035 76.294C343.498 78.1127 344.452 78.5684 345.898 77.6614C348.796 78.7975 352.796 78.62 355.393 80.6058C356.579 81.5128 357.008 83.4975 357.999 84.251C359.114 85.0996 360.608 84.7148 361.806 85.2474C361.367 86.4911 361.722 87.1645 362.868 87.2698C363.759 87.3718 364.621 87.6226 365.455 88.0211C366.078 87.4336 366.757 86.9698 367.489 86.6319C367.982 87.7165 368.677 87.9844 369.578 87.4382C372.25 88.0635 373.534 89.3266 375.232 91.2151C376.756 92.91 375.515 93.0475 377.186 92.8974C377.857 92.8367 379.033 91.4144 380.568 91.6915C381.451 91.9068 382.303 92.2469 383.123 92.7119C384.01 93.6602 384.952 93.7793 385.948 93.0704C387.566 94.0587 387.725 95.8097 389.697 96.0491C391.879 96.3148 391.177 92.9157 392.676 97.7096C394.693 92.6272 395.432 100.724 397.516 101.378C399.673 102.056 399.906 99.8695 401.753 102.258C402.307 102.974 402.276 104.157 402.897 104.917C403.916 106.159 405.293 105.911 406.178 107.605C405.685 106.66 406.295 110.958 406.285 110.816C406.422 112.712 405.074 114.836 407.837 114.675C407.806 114.874 406.479 117.292 406.22 117.018C406.157 116.742 406.103 116.463 406.06 116.18C405.764 116.339 405.632 118.642 405.687 119.049C405.921 119.094 406.017 118.877 405.974 118.396C405.52 120.172 406.205 121.3 405.333 122.986C404.775 124.063 403.247 124.873 402.434 125.538C400.476 127.144 398.558 128.754 396.647 130.463C392.191 134.448 387.201 139.254 381.588 140.085C384.407 136.626 400.624 123.538 392.49 119.78C390.981 119.084 388.235 118.424 386.657 118.278C384.695 118.096 382.665 119.5 380.502 118.624C377.89 117.568 378.873 114.5 377.278 113.399C373.891 111.064 374.691 116.555 373.624 117.994C372.504 116.524 372.744 115.81 370.976 115.677C369.18 115.542 368.752 117.616 366.657 116.324C363.771 114.543 365.298 110.996 361.203 110.913C361.272 110.134 361.866 107.958 361.084 107.351C360.031 109.059 360.846 110.968 359.869 112.611C359.379 113.436 358.318 114.093 357.542 114.36C355.726 114.983 355.468 116.176 355.764 112.76C354.418 115.789 350.292 114.543 347.839 114.239C343.849 113.743 339.609 112.799 335.784 111.2C332.246 109.721 330.357 107.179 327.439 104.867C326.336 103.992 325.81 104.327 324.228 103.784C322.667 103.248 321.146 102.209 321.881 99.818ZM330.299 46.1839C330.902 45.7304 331.335 52.4975 330.604 53.7618C329.268 51.1198 326.898 47.2444 330.299 46.1839ZM332.223 43.4846C334.16 41.2938 332.815 46.9524 332.459 47.9018C331.742 47.3269 331.024 46.752 330.307 46.1771C331.222 45.475 331.451 44.3584 332.223 43.4846ZM405.3 34.3653C423.195 39.0584 440.927 47.8307 455.279 62.2674C468.352 75.4168 477.579 94.0736 482.752 113.919C488.122 134.518 486.318 157.372 473.543 173.137C466.813 181.441 457.926 186.452 449.456 191.341C445.398 193.682 441.219 195.634 437.145 197.922C434.219 199.565 430.646 202.195 427.307 201.739C429.011 199.499 431.482 199.453 433.544 198.084C436.034 196.428 438.069 193.25 440.216 190.98C442.348 188.726 447.076 181.629 450.352 183.347C449.897 179.567 453.344 177.811 454.897 175.318C456.54 172.68 456.658 169.596 459.685 168.733C456.434 165.554 457.43 159.557 458.136 155.229C459.041 149.695 459.46 144.613 459.817 138.981C460.459 128.826 460.977 115.891 456.488 106.964C455.031 104.066 453.176 101.402 451.877 98.3911C450.31 94.763 450.656 91.569 450.656 87.5916C447.792 89.9966 447.188 85.0928 445.978 82.7027C445.07 80.9093 443.877 79.9072 443.584 77.6511C443.371 76.0089 444.797 75.7317 444.016 74.0105C443.057 74.9152 442.675 76.3169 442.19 77.6179C441.305 77.1759 442.348 75.6367 441.841 75.1362C441.826 75.1225 440.119 74.196 440.204 74.33C439.106 72.5904 438.753 69.7033 438.215 67.6327C436.203 68.9062 436.579 68.7562 434.335 66.6284C433.939 66.2539 431.964 64.5338 431.778 63.9715C430.91 61.3421 432.432 62.8996 432.006 61.2676C430.784 56.5802 423.926 57.4666 423.383 50.443C420.038 53.0965 418.763 49.3367 416.786 46.6626C414.76 43.9233 411.362 42.8697 411.544 38.5247C410.491 38.9748 409.439 39.4237 408.387 39.8715C408.933 35.8621 404.168 36.1174 402.441 34.0835C403.4 34.0984 404.353 34.1923 405.3 34.3653ZM408.026 282.694C409.684 280.839 409.181 283.306 410.248 283.025C411.16 282.783 411.341 281.921 412.216 281.656C415.822 280.567 421.212 281.935 425.004 281.701C429.395 281.429 436.923 282.569 439.016 288.99C440.277 292.857 438.353 291.542 436.233 291.254C434.589 291.032 433.129 291.448 431.502 291.427C430.698 291.582 429.897 291.567 429.099 291.38C428.709 291.059 428.479 290.608 428.408 290.026C426.145 289.598 423.742 291.271 421.236 291.355C417.891 291.466 414.918 290.664 412.378 287.842C411.367 289.724 410.679 290.657 408.862 290.868C408.814 290.874 407.04 289.981 406.765 289.891C406.402 289.773 405.482 290.727 404.781 290.455C406.025 287.979 406.206 284.726 408.026 282.694ZM636.448 305.04C637.039 302.474 637.532 299.874 638.07 297.29C646.326 309.036 653.55 324.759 656.801 339.822C658.912 349.61 662.199 367.346 652.131 372.394C643.93 376.507 639.358 361.765 637.283 354.505C632.702 338.477 632.702 321.348 636.448 305.04ZM267.093 121.001C267.199 120.975 261.749 124.936 263.545 121.728C264.266 120.439 267.002 119.532 268.215 119.532L267.093 121.001ZM261.85 122.68C261.22 123.343 260.583 123.998 259.94 124.644C259.323 123.426 258.706 122.207 258.089 120.989C259.305 120.347 264.47 119.866 261.85 122.68ZM258.009 245.846C256.869 244.881 255.964 245.394 255.622 247.014C255.622 245.402 256.294 241.656 257.326 241.219C257.993 240.937 255.109 236.671 255.92 235.554C257.982 237.03 256.747 238.445 257.351 240.35C257.624 241.21 258.443 242.023 258.622 242.684C258.926 243.805 260.157 247.661 258.009 245.846ZM252.422 236.247C251.254 236.62 253.299 239.03 253.297 240.095C253.295 240.9 252.522 241.518 252.203 242.62C251.511 245.008 252.701 246.62 250.741 248.442C250.741 243.211 247.932 229.349 253.33 226.8C250.697 224.208 252.86 221.217 254.924 224.318C256.908 227.3 255.644 235.216 252.422 236.247ZM249.61 215.603C248.549 210.901 245.355 209.256 241.705 209.535C241.844 207.127 243.304 203.656 244.358 207.995C244.792 206.713 245.092 205.04 246.08 204.19C247.745 210.713 256.045 214.317 250.877 221.385C250.455 219.458 250.044 217.527 249.61 215.603ZM239.965 209.885C220.744 211.627 193.76 216.611 178.379 198.199C168.351 186.194 168.886 167.498 176.991 154.16C181.616 146.549 187.929 141.189 194.27 136.084C196.717 134.113 198.79 132.812 201.476 131.679C201.911 131.621 202.32 131.742 202.702 132.043C202.853 131.233 203.219 130.632 203.801 130.241C204.838 129.547 206.316 129.299 206.913 127.859C206.276 130.564 205.948 133.349 205.714 136.148C205.196 135.394 204.678 134.641 204.161 133.887C203.729 138.985 199.48 135.899 196.943 136.536C198.614 139.427 199.809 140.477 199.953 144.297C198.708 141.425 196.105 139.536 193.685 138.611C194.999 143.469 195.928 146.353 194.605 151.68C193.007 150.54 192.899 147.8 190.96 147.144C190.449 150.321 190.358 153.846 189.703 156.929C184.738 154.099 185.223 161.721 187.216 165.492C188.276 167.498 188.797 169.821 189.742 171.747C192.062 176.471 190.3 169.406 192.879 169.742C192.299 174.725 192.098 175.22 195.016 178.869C197.863 182.427 199.341 187.364 202.387 190.707C203.268 189.299 201.881 187.825 201.76 186.477C204.594 187.071 205.921 190.622 208.646 187.477C209.834 190.37 211.12 193.558 213.966 194.152C212.085 189.683 217.578 192.714 218.987 193.348C220.056 193.829 221.97 194.212 222.382 194.397C224.703 195.445 223.112 193.565 224.52 196.999C226.589 196.219 227.37 194.074 229.844 195.886C231.855 197.36 231.86 199.884 232.319 202.47C232.799 200.778 233.283 199.088 233.813 197.419C234.353 197.703 236.618 200.818 236.371 200.833C241.673 200.508 241.485 204.622 239.965 209.885ZM212.978 125.557C214.042 124.623 215.342 125.866 216.537 125.532C218.192 125.07 219.132 123.298 220.981 123.108C220.467 125.163 219.501 124.97 218.685 126.584C218.406 127.134 218.551 128.453 218.304 128.769C216.232 131.421 215.516 129.257 213.401 127.249C213.585 129.67 213.957 130.435 212.132 131.085C210.48 131.673 207.754 129.506 206.921 127.843C207.623 126.086 211.704 126.675 212.978 125.557ZM226.166 121.773C227.961 121.987 225.799 128.604 223.227 122.185C224.195 121.922 225.176 121.784 226.166 121.773ZM235.395 120.494C238.225 119.772 247.666 116.41 248.716 121.916C248.905 121.779 249.607 118.671 249.934 119.05C251.241 120.569 251.387 122.584 251.287 124.694C249.707 120.581 250.269 124.194 249.198 123.912C248.919 123.838 248.491 124.491 247.783 124.221C246.855 123.868 246.189 121.4 245.604 120.564C244.628 122.304 243.419 124.546 241.465 124.394C240.082 124.288 237.853 119.838 239.644 124.709C238.593 124.275 237.375 123.293 236.204 123.49C234.892 123.711 234.21 125.329 232.981 125.59C230.255 126.167 229.845 122.89 228.075 121.11C230.515 120.932 232.985 121.108 235.395 120.494ZM252.518 120.441C252.718 119.312 255.195 118.856 255.825 119.215C257.365 120.088 256.795 121.242 256.513 123.161C255.37 122.485 254.228 121.811 253.086 121.135C254.791 124.566 251.702 125.064 252.518 120.441ZM731.945 321.418C731.743 313.195 731.552 304.831 729.884 296.826C728.716 291.223 725.849 281.177 720.425 280.205C712.245 278.738 707.715 298.942 705.423 305.877C704.965 297.712 705.366 289.021 702.898 281.271C700.922 275.061 695.93 269.179 691.631 276.153C687.805 282.36 687.07 291.523 686.064 298.991C684.759 308.668 683.975 318.42 683.022 328.155C679.286 319.132 678.634 308.803 675.68 299.425C672.894 290.576 668.509 282.124 664.285 274.253C660.836 267.824 656.64 261.78 651.236 257.849C646.533 254.428 638.308 250.728 633.825 256.41C630.084 261.15 630.67 267.493 630.865 273.475C630.952 276.138 631.286 277.965 629.412 279.307C628.491 279.967 627.051 279.625 626.039 279.978C624.408 280.547 623.157 281.512 621.777 282.793C612.104 291.779 607.645 307.971 606.266 322.407C604.518 340.699 610.223 356.379 615.133 373.116C615.916 375.783 618.401 381.441 618.058 384.419C617.682 387.682 614.405 387.766 612.194 387.834C605.516 388.04 598.536 387.418 591.892 386.641C576.073 384.791 560.266 375.273 546.101 366.776C543.518 365.225 539.861 364.337 537.752 361.896C535.769 359.601 535.246 355.922 533.535 353.289C529.334 346.829 526.658 341.316 520.471 337.413C514.172 333.439 507.745 329.767 501.599 325.414C493.998 320.029 486.976 313.208 479.693 307.178C466.158 295.976 452.713 283.694 438.363 274.169C431.695 269.741 424.243 269.024 417.32 265.4C410.578 261.87 402.302 261.865 395.267 264.094C391.84 265.181 389.508 267.755 386.356 269.435C382.662 271.405 379.649 269.231 376.399 266.88C371.432 263.289 366.509 257.437 373.581 253.563C375.98 252.248 378.986 251.75 381.082 249.683C383.316 247.48 385.109 243.417 386.926 240.658C390.964 234.526 393.376 227.465 399.287 223.652C405.822 219.434 413.57 218.286 420.539 215.53C428.09 212.544 435.483 208.994 442.893 205.508C456.244 199.228 470.124 192.447 479.718 178.622C487.993 166.694 491.599 151.299 491.265 135.662C490.582 103.696 476.881 71.2539 457.222 51.2676C433.116 26.7599 402.449 18.5876 371.999 19.0159C357.708 19.2174 340.654 21.5548 328.73 32.4058C318.43 41.7783 316.717 58.1709 318.249 72.9683C318.871 78.9739 320.996 86.8988 317.607 92.1908C315.71 95.1512 312.305 95.8842 309.751 97.7303C306.54 100.049 303.709 102.272 300.073 103.499C284.627 108.712 268.357 106.897 252.564 106.608C226.256 106.127 199.289 115.029 179.663 138.197C163.815 156.904 159.062 192.18 178.391 210.418C194.008 225.151 218.504 223.53 236.919 220.96C242.629 220.162 246.555 219.003 246.568 227.734C246.583 237.272 245.319 247.24 247.266 256.603C250.333 271.349 261.67 271.701 271.694 268.525C276.983 266.849 282.096 264.33 287.119 261.691C294.486 257.822 301.239 252.131 308.514 248.268C313.447 245.65 317.14 254.117 321.515 248.248C322.323 247.163 322.472 245.546 323.691 244.991C325.602 244.121 328.808 247.17 330.483 248.134C332.993 249.578 335.523 250.64 336.525 254.117C337.463 257.369 337.052 262.541 336.153 265.75C334.201 272.724 328.945 271.346 324.145 270.879C315.775 270.065 307.461 268.339 299.093 267.614C291.586 266.964 284.556 269.767 278.081 274.394C264.481 284.111 253.354 299.567 241.562 312.278C235.493 318.819 229.626 325.885 223.026 331.582C220.156 334.059 217.048 336.336 214.554 339.414C212.079 342.467 211.807 345.243 210.961 349.306C209.453 356.541 201.967 360.077 197.288 363.894C190.67 369.292 183.655 373.099 176.237 376.411C160.526 383.425 144.692 388.322 128.268 391.942C120.226 393.715 112.251 394.879 104.131 395.837C97.132 396.661 89.6891 399.355 82.6983 397.203C84.7119 393.121 88.2796 390.671 91.0584 387.516C94.6407 383.449 97.6876 378.63 100.399 373.637C105.676 363.914 109.377 353.481 110.228 341.687C110.994 331.073 110.115 318.376 104.991 309.41C103.22 306.313 99.7186 305.47 98.1343 302.68C96.5591 299.906 97.1595 295.132 96.2973 291.898C94.1016 283.673 87.5858 273.48 81.8517 268.704C75.6307 263.519 66.5302 261.615 59.3435 264.316C46.0301 269.321 37.8522 287.102 31.7602 301.473C28.4323 292.721 34.0053 279.738 27.5042 272.571C22.0209 266.525 17.6688 278.236 15.8346 283.247C7.22561 306.766 5.2706 331.711 1.66355 356.876C0.19363 355.066 0.946894 350.418 1.0851 348.259C1.34229 344.238 1.31849 340.293 1.3249 336.255C1.34229 326.055 2.8598 315.808 2.1642 305.616C1.7624 299.725 0.259529 287.303 -6.5894 289.26C-12.3977 290.921 -16.0358 301.128 -17.8609 307.368C-20.4932 316.37 -21.1009 325.281 -20.9371 334.79C-20.7559 345.296 -22.3576 355.63 -22.7456 366.122C-23.4998 386.501 -22.7548 406.704 -18.076 426.372C-10.4143 458.579 7.20181 485.339 30.7131 501.498C43.6669 510.402 58.0374 516.035 72.8126 517.247C80.8193 517.903 88.5487 516.712 96.4868 515.678C104.321 514.657 112.195 514.185 120.016 512.987C137.431 510.317 154.401 503.427 170.231 494.155C178.563 489.274 186.399 483.282 194.595 478.078C197.883 475.992 200.106 473.379 202.912 470.476C205.694 467.6 206.465 467.374 209.629 467.374C208.701 464.27 211.41 463.314 212.616 461.35C212.548 462.303 212.48 463.255 212.412 464.206C213.331 461.715 214.187 461.739 214.979 464.278C215.761 461.435 216.341 458.511 217.285 455.74C220.898 458.024 220.594 463.456 225.425 459.49C229.403 456.226 233.062 452.376 237.117 449.178C246.356 441.889 254.321 432.407 263.587 425.202C263.587 432.219 263.983 439.297 263.232 446.278C262.519 452.916 260.535 459.12 258.958 465.475C256.049 477.2 255.848 489.73 252.625 501.337C251.292 506.143 247.818 510.163 246.823 514.842C245.808 519.615 248.153 523.44 244.221 526.575C241.45 528.784 237.986 529.717 234.917 531.054C230.235 533.094 225.791 535.971 221.234 538.412C199.859 549.858 179.009 561.516 159.205 576.906C140.411 591.511 121.33 606.595 104.065 623.94C89.0814 638.994 73.9347 658.458 70.2873 683.015C66.748 706.835 76.178 732.402 95.113 740.247C104.958 744.326 116.089 743.821 126.342 743.997C137.374 744.187 149.065 740.865 159.912 738.46C171.367 735.921 182.626 731.947 194.114 729.68C205.137 727.504 215.247 722.641 226.089 719.644C237.637 716.452 249.482 714.721 261.093 711.85C266.321 710.557 271.442 708.65 276.684 707.453C282.423 706.143 288.225 705.652 293.908 703.917C304.93 700.55 315.484 695.123 326.555 691.99C331.532 690.582 336.434 688.696 341.413 687.38C345.997 686.168 349.568 682.948 354.163 685.592C357.875 687.729 360.835 691.393 364.348 693.944C368.904 697.255 373.708 700.22 378.458 703.068C388.002 708.792 397.901 712.748 407.88 717.044C418.363 721.559 428.657 726.707 439.516 729.688C450.649 732.743 462.007 733.594 473.217 736.012C496.176 740.961 518.939 743.183 542.244 743.363C554.023 743.455 565.801 741.71 577.553 741.916C587.957 742.1 597.001 745.03 606.514 738.118C621.715 727.073 639.347 710.437 638.973 686.272C638.634 664.386 628.128 643.475 618.276 626.214C606.309 605.25 589.249 590.488 572.528 576.028C554.707 560.618 534.69 549.969 515.96 536.518C506.381 529.638 497.547 522.237 487.146 517.348C482.18 515.015 477.337 512.31 472.43 509.797C468.482 507.776 462.78 506.66 459.401 503.305C457.292 501.213 457.09 498.044 456.534 494.932C455.3 488.047 453.362 481.517 451.484 474.877C447.858 462.056 445.448 448.997 443.889 435.549C442.404 422.73 439.106 409.398 440.814 396.37C452.048 409.95 463.591 423.005 475.085 436.225C479.392 441.179 483.62 446.238 487.95 451.162C491.2 454.859 495.266 460.35 499.797 461.447C505.584 462.849 503.47 454.849 507.443 453.61C509.872 452.853 517.196 460.563 519.116 462.086C531.285 471.742 544.761 477.861 558.145 484.433C572.181 491.324 586.616 497.445 601.718 499.18C615.669 500.785 629.934 498.725 643.397 493.976C670.207 484.517 689.935 462.073 704.414 432.98C720.911 399.828 732.916 360.992 731.945 321.418Z" fill="#26424F"/>
<path fill-rule="evenodd" clip-rule="evenodd" d="M322.191 249.147C322.187 249.157 322.146 249.265 322.146 249.265C322.197 249.222 322.211 249.183 322.191 249.147Z" fill="#26424F"/>
<path fill-rule="evenodd" clip-rule="evenodd" d="M323.486 249.575C323.385 248.519 323.168 247.485 322.835 246.473C321.948 248.231 321.154 248.984 322.32 250.847C322.708 250.423 323.096 249.999 323.486 249.575Z" fill="#26424F"/>
<path fill-rule="evenodd" clip-rule="evenodd" d="M385.308 500.902C386.301 499.582 384.565 499.084 383.905 499.066C383.971 500.483 383.409 503.877 384.96 504.534C384.587 503.253 384.704 502.042 385.308 500.902Z" fill="#26424F"/>
<path fill-rule="evenodd" clip-rule="evenodd" d="M359.12 224.65C357.414 228.768 361.182 230.045 363.364 228.056C365.007 226.561 365.977 222.748 366.247 220.302C367.119 212.386 362.687 204.852 360.478 197.829C359.907 196.014 359.124 189.788 357.286 189.617C355.173 189.42 355.017 195.155 354.989 196.634C354.908 201.096 355.853 205.64 356.961 209.851C358.155 214.392 361.113 219.841 359.12 224.65Z" fill="#26424F"/>
<path fill-rule="evenodd" clip-rule="evenodd" d="M367.234 208.136C373.792 215.434 379.038 203.278 378.58 196.088C378.467 194.307 377.504 187.739 374.801 190.129C373.442 191.33 374.6 195.232 373.953 196.945C370.816 205.252 367.796 192.368 365.684 191.356C363.114 190.124 362.855 194.344 362.859 196.599C362.865 201.077 364.57 205.17 367.234 208.136Z" fill="#26424F"/>
<path fill-rule="evenodd" clip-rule="evenodd" d="M343.428 209.269C344.973 206.229 346.872 202.152 347.082 198.51C347.408 192.849 344.769 193.321 342.596 197.271C341.062 200.061 339.91 204.793 336.523 203.617C332.341 202.167 333.618 195.139 331.277 191.799C325.365 201.723 336.553 222.796 343.428 209.269Z" fill="#26424F"/>
<path fill-rule="evenodd" clip-rule="evenodd" d="M352.289 239.641C354.735 240.302 361.11 240.058 358.901 235.379C356.116 229.484 346.851 238.171 352.289 239.641Z" fill="#26424F"/>
<path fill-rule="evenodd" clip-rule="evenodd" d="M437.958 63.8619C438.406 62.196 437.791 61.8934 436.724 60.5815C435.713 61.7473 437.007 62.9739 437.958 63.8619Z" fill="#26424F"/>
<path fill-rule="evenodd" clip-rule="evenodd" d="M483.57 365.606C485.183 365.927 485.703 364.86 485.127 362.406C482.581 362.201 482.063 363.267 483.57 365.606Z" fill="#26424F"/>
<path fill-rule="evenodd" clip-rule="evenodd" d="M395.475 108.202C397.254 109.219 396.572 111.305 396.542 113.068C397.459 111.823 399.31 109.548 398.556 107.759C397.395 105.002 394.36 107.566 395.475 108.202Z" fill="#26424F"/>
<path fill-rule="evenodd" clip-rule="evenodd" d="M334.86 73.5006C334.589 72.8392 334.318 72.1777 334.047 71.5163C332.941 72.6246 331.235 75.5553 332.991 76.9836C333.711 75.8917 334.334 74.7307 334.86 73.5006Z" fill="#26424F"/>
<path fill-rule="evenodd" clip-rule="evenodd" d="M356.211 92.9526C358.425 95.1226 357.363 88.4624 357.297 87.9184C356.968 88.6997 355.093 91.8565 356.211 92.9526Z" fill="#26424F"/>
<path fill-rule="evenodd" clip-rule="evenodd" d="M354.984 89.5704C354.815 89.0201 354.645 88.4699 354.476 87.9184C353.579 88.9568 352.479 91.0774 353.962 92.2923C354.368 91.4414 354.709 90.5345 354.984 89.5704Z" fill="#26424F"/>
<path fill-rule="evenodd" clip-rule="evenodd" d="M369.046 112.442C369.227 112.65 369.408 112.859 369.588 113.068C370.318 111.227 369.488 109.844 368.109 109.788C368.207 110.822 368.519 111.706 369.046 112.442Z" fill="#26424F"/>
<path fill-rule="evenodd" clip-rule="evenodd" d="M309.718 319.554C310.596 318.807 311.394 317.954 312.111 316.998C309.512 315.012 311.069 319.316 307.94 316.673C307.266 317.838 308.367 320.444 309.718 319.554Z" fill="#26424F"/>
<path fill-rule="evenodd" clip-rule="evenodd" d="M418.946 500.16C419.935 498.264 420.113 498.318 418.763 496.879C417.637 499.222 417.754 498.62 418.946 500.16Z" fill="#26424F"/>
<path fill-rule="evenodd" clip-rule="evenodd" d="M212.365 198.443C212.903 199.145 213.441 199.846 213.979 200.547C214.231 199.629 215.601 197.036 214.67 196.173C213.902 196.93 213.133 197.686 212.365 198.443Z" fill="#26424F"/>
<path fill-rule="evenodd" clip-rule="evenodd" d="M231.504 205.382C230.645 205.203 228.59 204.42 228.115 205.418C229.372 206.705 232.208 205.53 231.504 205.382Z" fill="#26424F"/>
</svg>
